<?xml version="1.0" encoding="utf-8"?><svg version="1.1" id="Capa_1" xmlns="http://www.w3.org/2000/svg" x="0" y="0" width="382" height="55" xml:space="preserve"><style>.st0{fill-rule:evenodd;clip-rule:evenodd;fill:#125b9e}</style><path class="st0" d="M334.5 37.3c-.6-.6-1-1.3-1.5-2 .3 0 .6-.1.8-.4.2-.2.4-.6.4-.9 0-.9-.7-1.3-1.3-1.3H331l-.1.1v3.1c0 .4 0 .9-.1 1.4l.1.1h.9l.1-.1v-2h.3c.4.5.9 1.3 1.3 2h1zm2.7-1.6c0-.9-.3-1.6-1.4-1.6-1 0-1.5.7-1.5 1.7 0 .9.5 1.7 1.6 1.7.3 0 .8-.1 1.1-.3l.1-.1v-.4h-.1c-.3.2-.5.3-.8.3-.6 0-.8-.5-.9-1.1l1.9-.2zm-.9-.4l-1 .1c0-.4.2-.8.5-.8.4 0 .5.3.5.7zm4.3-1.1h-.5c-.4 0-.8-.1-1.2-.1-.8 0-1.3.4-1.3 1.1 0 .4.2.7.5.9-.2.2-.5.5-.5.8 0 .3.2.4.5.4-.3.3-.6.6-.6.9 0 .6.6.9 1.4.9 1 0 1.7-.5 1.7-1.3 0-.6-.4-.8-.9-.9l-1-.1c-.1 0-.2 0-.2-.1s.2-.3.2-.3c.2 0 .3.1.5.1.7 0 1.2-.5 1.2-1.1 0-.3-.1-.5-.3-.7h.4c0-.3 0-.3.1-.5zm-1.2 1.1c0 .4-.1.7-.5.7-.3 0-.5-.3-.5-.7 0-.3.1-.7.5-.7.3 0 .5.3.5.7zm.3 2.7c0 .4-.4.7-.8.7-.3 0-.5-.2-.5-.4 0-.3.2-.5.5-.8.3 0 .8 0 .8.5zm2.2-5c0-.3-.3-.6-.6-.6s-.6.2-.6.6c0 .3.2.6.6.6.4 0 .6-.3.6-.6zm0 4.3c-.1-.2-.1-.4-.1-.7v-1c0-.4 0-.9-.1-1.3h-.1l-.8.1v.1c.1.4.1.8.1 1.2v1c0 .3 0 .5.1.8l.9-.2zm2.9-.9c0-1.1-1.4-.9-1.4-1.5 0-.2.3-.3.5-.3s.4.1.6.1h.1l.2-.4v-.1c-.4-.2-.7-.2-1.1-.2-.6 0-1.2.3-1.2.9 0 1 1.4.8 1.4 1.5 0 .3-.2.4-.5.4s-.5-.1-.8-.3h-.1c0 .2-.1.2-.2.4v.1c.4.2.8.4 1.2.4.8 0 1.3-.3 1.3-1zm2.4.4c-.2.1-.4.1-.6.1-.3 0-.3-.2-.3-.4v-1.7h.7l.1-.1c0-.2 0-.3.1-.4v-.1h-.8v-.1c0-.3 0-.6.1-.9h-.1l-.9.1v1h-.5v.1c0 .2.1.2.1.4v.1h.4v1.9c0 .6.3.7.8.7.3 0 .7 0 .8-.1l.1-.1v-.5zm2.6-2.6c-.1-.1-.2-.1-.2-.1-.4 0-.7.2-.9.5 0-.2 0-.3-.1-.5h-.1l-.9.1v.1c.2.4.1 1.3.1 1.7 0 .4 0 .8-.1 1.2l.1.1h.9l.1-.1v-1.3c0-.5 0-.8.1-.9.1-.2.3-.3.5-.3.1 0 .2 0 .3.1h.1l.1-.6zm3.2 1.6c0-1-.6-1.7-1.6-1.7s-1.6.7-1.6 1.7.6 1.7 1.6 1.7c1-.1 1.6-.7 1.6-1.7zm-1 .1c0 .6-.2 1-.5 1-.4 0-.6-.6-.6-1.3 0-.6.2-1 .5-1 .4 0 .6.6.6 1.3zm7.2-3.1l-.9-.1-.1.1v2.1c0 .7 0 1.2-.2 1.5-.1.1-.3.2-.6.2-1 0-.8-.9-.8-1.7v-2.1l-.1-.1h-.9v3.1c0 1.1.8 1.5 1.7 1.5.6 0 1.1-.1 1.4-.5.5-.4.4-1.2.4-1.9.1-.6.1-1.3.1-2.1zm3.5 4.5c-.1-.3-.1-.7-.1-1v-1.1c0-.2 0-.6-.1-.8-.1-.1-.4-.2-.6-.2-.4 0-.8.3-1.2.5 0-.2 0-.3-.1-.5h-.1l-.9.1v.1c.2.4.1 1.2.1 1.7v1.2l.1.1h.9l.1-.1V36c0-.3 0-.7.1-.9.1-.2.3-.3.5-.3.3 0 .3.3.3.5v1.3c0 .2 0 .6.1.8l.9-.1zm1.7-4.3c0-.3-.2-.6-.6-.6-.3 0-.6.2-.6.6 0 .3.3.6.6.6s.6-.3.6-.6zm0 4.3c-.1-.2-.1-.4-.1-.7v-1c0-.4 0-.9-.1-1.3h-.1l-.8.1v.1c.1.4.1.8.1 1.2v1c0 .3 0 .5.1.8l.9-.2zm2.6-4.7c-.1-.1-.4-.1-.8-.1-.6 0-1 .3-1 .9v.8h-.5v.1c0 .2.1.2.1.4v.1h.4v1.5c0 .3-.1.9.1 1.1h.9l.1-.1c-.1-.4-.1-.7-.1-1.1v-1.4h.7l.1-.1c0-.2 0-.3.1-.4v-.1h-.8v-.5c0-.5.2-.7.5-.7h.4l-.2-.4zm3 3.2c0-1-.6-1.7-1.6-1.7s-1.6.7-1.6 1.7.6 1.7 1.6 1.7c1.1-.1 1.6-.7 1.6-1.7zm-.9.1c0 .6-.2 1-.5 1-.4 0-.6-.6-.6-1.3 0-.6.2-1 .5-1 .4 0 .6.6.6 1.3zm3.6-1.7c-.1-.1-.2-.1-.2-.1-.4 0-.7.2-.9.5 0-.2 0-.3-.1-.5h-.1l-.9.1v.1c.2.4.1 1.3.1 1.7 0 .4 0 .8-.1 1.2l.1.1h.9l.1-.1v-1.3c0-.5 0-.8.1-.9.1-.2.3-.3.5-.3.1 0 .2 0 .3.1h.1l.1-.6zm5.1 3.1c-.1-.3-.1-.7-.1-1v-1.1c0-.2 0-.6-.2-.8-.1-.1-.4-.2-.6-.2-.4 0-.8.3-1.2.5-.1-.4-.3-.5-.7-.5-.4 0-.8.3-1.2.5 0-.2 0-.3-.1-.5h-.1l-.9.1v.1c.2.4.1 1.3.1 1.7 0 .4 0 .8-.1 1.2l.1.1h.9v-.1-1c0-.4-.1-.9.1-1.2.1-.2.3-.3.5-.3.3 0 .3.3.3.9v1.5l.1.1h.9v-.1-1c0-.4-.1-.9.1-1.2.1-.2.3-.3.5-.3.3 0 .3.2.3.5v1.7c0 .2 0 .3.1.4h1.2zm3.2-1.6c0-.9-.3-1.6-1.4-1.6-1 0-1.5.7-1.5 1.7 0 .9.5 1.7 1.6 1.7.3 0 .8-.1 1.1-.3l.1-.1v-.4h-.1c-.3.2-.5.3-.8.3-.6 0-.8-.5-.9-1.1l1.9-.2zm-.9-.4l-1 .1c0-.4.2-.8.5-.8s.5.3.5.7zm-46.2 5.8c0-.8-.3-1.6-1-1.6-.5 0-.8.3-1.1.5 0-.2 0-.3-.1-.5h-.1l-.9.1v.1c.2.3.1 1.4.1 1.8V44c0 .2 0 .3.1.4h.9v-.1c-.1-.3-.1-.7-.1-1v-.5h.5c1.1 0 1.7-.6 1.7-1.7zm-1 0c0 .6-.2 1.2-.7 1.2-.3 0-.4-.1-.4-.5v-.9c0-.5.3-.8.7-.8.3 0 .4.6.4 1zm4.1 1.6c-.1-.3-.1-1.4-.1-1.9 0-.4 0-.7-.1-.8 0-.1 0-.1-.1-.2-.2-.2-.6-.3-1-.3s-.8.1-1.2.2l-.1.1-.1.5.1.1c.3-.1.7-.2 1-.2.4 0 .5.1.5.5v.1c-.8 0-1.8.1-1.8 1.2 0 .6.4 1 .9 1 .4 0 .7-.2.9-.6 0 .2 0 .4.1.5l1-.2zm-.9-.9c-.2.2-.4.4-.6.4-.2 0-.4-.2-.4-.4 0-.5.5-.6 1-.7v.7zm3.7-2.2c-.1-.1-.2-.1-.2-.1-.4 0-.7.2-.9.5 0-.2 0-.3-.1-.5h-.1l-.9.1v.1c.2.4.1 1.3.1 1.7 0 .4 0 .8-.1 1.2l.1.1h.9l.1-.1v-1.3c0-.5 0-.8.1-.9.1-.2.3-.3.5-.3.1 0 .2 0 .3.1h.1l.1-.6zm2.8 3.1c-.1-.3-.1-1.4-.1-1.9 0-.4 0-.7-.1-.8 0-.1 0-.1-.1-.2-.2-.2-.6-.3-1-.3s-.8.1-1.2.2l-.1.1-.1.5.1.1c.3-.1.7-.2 1-.2.4 0 .5.1.5.5v.1c-.8 0-1.8.1-1.8 1.2 0 .6.4 1 .9 1 .4 0 .7-.2.9-.6 0 .2 0 .4.1.5l1-.2zm-.9-.9c-.2.2-.4.4-.6.4-.2 0-.4-.2-.4-.4 0-.5.5-.6 1-.7v.7zm10.2-.6c0-1-.6-1.7-1.6-1.7s-1.6.7-1.6 1.7.6 1.7 1.6 1.7c1-.1 1.6-.7 1.6-1.7zm-1 .1c0 .6-.2 1-.5 1-.4 0-.6-.6-.6-1.3 0-.6.2-1 .5-1 .4 0 .6.6.6 1.3zm4.4 1.3c-.1-.3-.1-.7-.1-1v-1.1c0-.2 0-.6-.2-.8-.1-.1-.4-.2-.6-.2-.4 0-.8.3-1.2.5 0-.2 0-.3-.1-.5h-.1l-.9.1v.1c.2.4.1 1.2.1 1.7v1.2l.1.1h.9l.1-.1v-1.3c0-.3 0-.7.1-.9.1-.2.3-.3.5-.3.3 0 .3.3.3.5v1.3c0 .2 0 .6.1.8l1-.1zm2.5-.4c-.2.1-.4.1-.6.1-.2 0-.3-.2-.3-.4v-1.7h.7l.1-.1c0-.2 0-.3.1-.4v-.1h-.8v-.1c0-.3 0-.6.1-.9h-.1l-.9.1v1h-.5v.1c0 .2.1.2.1.4v.1h.4v2c0 .6.3.7.8.7.3 0 .7 0 .8-.1l.1-.1v-.6zm2.5-2.6c-.1-.1-.2-.1-.3-.1-.4 0-.7.2-.9.5 0-.2 0-.3-.1-.5h-.1l-.9.1v.1c.2.4.1 1.3.1 1.7 0 .4 0 .8-.1 1.2l.1.1h.9l.1-.1v-1.3c0-.5 0-.8.1-.9.1-.2.3-.3.5-.3.1 0 .2 0 .3.1h.1l.2-.6zm2.8 3.1c-.1-.3-.1-1.4-.1-1.9 0-.4 0-.7-.1-.8 0-.1 0-.1-.1-.2-.2-.2-.6-.3-1-.3s-.8.1-1.2.2l-.1.1-.1.5.1.1c.3-.1.7-.2 1-.2.4 0 .5.1.5.5v.1c-.8 0-1.8.1-1.8 1.2 0 .6.4 1 .9 1 .4 0 .7-.2.9-.6 0 .2 0 .4.1.5l1-.2zm-.9-.9c-.2.2-.4.4-.6.4-.2 0-.4-.2-.4-.4 0-.5.5-.6 1-.7v.7zm3.4.4c-.2.1-.4.1-.6.1-.3 0-.3-.2-.3-.4v-1.7h.7l.1-.1c0-.2 0-.3.1-.4v-.1h-.8v-.1c0-.3 0-.6.1-.9h-.1l-.9.1v1h-.5v.1c0 .2.1.2.1.4v.1h.4v2c0 .6.3.7.8.7.3 0 .7 0 .8-.1l.1-.1v-.6zm1.6-3.8c0-.3-.3-.6-.6-.6s-.6.2-.6.6c0 .3.3.6.6.6.3-.1.6-.3.6-.6zm0 4.2c-.1-.2-.1-.4-.1-.7v-1.1c0-.4 0-.9-.1-1.3h-.1l-.8.1v.1c.1.4.1.8.1 1.2v1c0 .3 0 .5.1.8l.9-.1zm2.9-.8c0-1.1-1.4-.9-1.4-1.5 0-.2.3-.3.5-.3s.4.1.6.1h.1l.2-.4v-.1c-.4-.2-.7-.2-1.1-.2-.6 0-1.2.3-1.2.9 0 1 1.4.8 1.4 1.5 0 .3-.2.4-.5.4s-.5-.1-.8-.3h-.1c0 .2-.1.2-.2.4v.1c.4.2.8.4 1.2.4.7 0 1.3-.3 1.3-1zm2.5.4c-.2.1-.4.1-.6.1-.2 0-.3-.2-.3-.4v-1.7h.7l.1-.1c0-.2 0-.3.1-.4v-.1h-.8v-.1c0-.3 0-.6.1-.9h-.1l-.9.1v1h-.5v.1c0 .2.1.2.1.4v.1h.4v2c0 .6.3.7.8.7.3 0 .7 0 .8-.1l.1-.1v-.6zm3 .5c-.1-.3-.1-1.4-.1-1.9 0-.4 0-.7-.1-.8 0-.1 0-.1-.1-.2-.2-.2-.6-.3-1-.3s-.8.1-1.2.2l-.1.1-.1.5.1.1c.3-.1.7-.2 1-.2.4 0 .5.1.5.5v.1c-.8 0-1.8.1-1.8 1.2 0 .6.4 1 .9 1 .4 0 .7-.2.9-.6 0 .2 0 .4.1.5l1-.2zm-1-.9c-.2.2-.4.4-.6.4-.2 0-.4-.2-.4-.4 0-.5.5-.6 1-.7v.7zm3.7 0c0-1.1-1.4-.9-1.4-1.5 0-.2.3-.3.5-.3s.4.1.6.1h.1l.2-.4v-.1c-.4-.2-.7-.2-1.1-.2-.6 0-1.2.3-1.2.9 0 1 1.4.8 1.4 1.5 0 .3-.2.4-.5.4s-.5-.1-.8-.3h-.1c0 .2-.1.2-.2.4v.1c.4.2.8.4 1.2.4.7 0 1.3-.3 1.3-1zm-29.7-.1c-.5.2-.8.4-1.2.4-.8 0-1.4-.7-1.4-1.7s.7-1.5 1.4-1.5c.4 0 .6.1 1 .3h.1c0-.2.1-.3.1-.6v-.1c-.4-.2-.8-.3-1.3-.3-1.2 0-2.3.9-2.3 2.3 0 1.5 1 2.4 2.2 2.4.4 0 .9-.1 1.3-.4l.1-.1v-.7zm-9.7-15c.7.9 1.4 1.7 2.1 2.5l-.2.5h-3l-.3-.2c-1.1-1.6-2.2-3.3-3.3-4.9h-.3c0 1.6 0 3.1.1 4.7l-.4.3h-2.5l-.3-.4c.2-1.2.2-2.3.2-3.5 0-1.7 0-3.3-.1-4.9 0-.9-.1-1.8-.1-2.8l.3-.3h5.2c1.7 0 3.8.9 3.8 3.4 0 .9-.4 1.8-1 2.4-.5.5-1.2.8-1.9.9.6.9 1.1 1.6 1.7 2.3zm-2.8-4.2c.5-.2.8-.5.8-1.2 0-.9-.5-1.3-1.8-1.3h-1.3v2.7h.2c.8.1 1.6 0 2.1-.2zm14.6-4.7l.3.4c-.1 1.9 0 3.8 0 5.7 0 1.6.2 3.6-1.1 4.8-1.1 1-2.5 1.2-4 1.2-2.6 0-4.8-1-4.9-4 0-2.5.1-5.1 0-7.6l.2-.4 2.6-.1.3.3c-.1 1.8-.1 3.5-.1 5.3 0 .8-.1 2 .2 2.9.2.7.7 1.2 1.8 1.2 2.4 0 2-2.4 2-4V23c0-1.6 0-3.1-.1-4.7l.3-.4 2.5-.1zm11.1 8.8c-1.1.7-1.8 1-3 1-2.1 0-3.5-1.6-3.5-4 0-2.1 1.5-3.7 3.6-3.7 1 0 1.7.3 2.6.7h.1l.3-.1v-.1c0-.3.1-.5.1-.7 0-.3.1-.5.1-.9l-.2-.3c-1-.6-2.2-.9-3.7-.9-3.6 0-6.2 2.5-6.2 5.9 0 3.8 2.4 6.3 6 6.3 1.4 0 2.6-.3 3.7-1l.2-.3.1-1.9h-.2zm4.9-8.8c.5 0 1 .1 1.5.4.5.3.9.6 1.1 1.1.3.5.4 1 .4 1.5s-.1 1-.4 1.5c-.3.5-.6.9-1.1 1.1-.5.3-1 .4-1.5.4s-1-.1-1.5-.4c-.5-.3-.9-.6-1.1-1.1-.3-.5-.4-1-.4-1.5s.1-1 .4-1.5c.3-.5.7-.9 1.1-1.1.5-.3 1-.4 1.5-.4zm0 .5c-.4 0-.8.1-1.3.3-.4.2-.7.5-1 .9-.2.4-.3.8-.3 1.3 0 .4.1.9.3 1.3.2.4.5.7.9.9.4.2.8.3 1.3.3.4 0 .9-.1 1.3-.3.4-.2.7-.5.9-.9.2-.4.3-.8.3-1.3 0-.4-.1-.9-.3-1.3-.2-.4-.5-.7-1-.9-.3-.2-.7-.3-1.1-.3zm-1.3 4.2h.5v-1.4h.3c.2 0 .3 0 .4.1.1.1.3.4.6.8l.3.5h.6l-.4-.6c-.2-.3-.4-.5-.5-.7-.1-.1-.2-.1-.3-.2.3 0 .5-.1.7-.3.2-.2.3-.4.3-.6 0-.2-.1-.3-.2-.5s-.2-.3-.4-.3c-.2-.1-.5-.1-.8-.1h-1.1v3.3zm.5-1.9h.6c.3 0 .5 0 .6-.1.1-.1.2-.2.2-.4 0-.1 0-.2-.1-.3l-.2-.2c-.1 0-.3-.1-.5-.1h-.6v1.1zM247.1 34.7c1 0 1.6.7 1.6 1.7s-.6 1.7-1.6 1.7-1.6-.7-1.6-1.7.6-1.7 1.6-1.7zm27.9-1.1c0-.3-.3-.6-.6-.6s-.6.3-.6.6v0c0-.3.3-.6.6-.6s.6.3.6.6c0-.3-.3-.6-.6-.6s-.6.3-.6.6v.2c.1.2.3.4.5.4.4 0 .7-.3.7-.6zm-30.2 1.9V39c-.1.7-.7 1-1.4 1h-.1l-.1-.4v-.1c.7-.2.6-1 .6-1.6v-1.7c0-.4 0-.9-.1-1.3v-.1l.9-.1h.1c.1.3.1.6.1.8zm-3.6 1c0 .6.3 1.1.9 1.1.3 0 .6-.2.9-.3h.1v.5l-.1.1c-.3.2-.7.3-1.1.3-1.2 0-1.7-.8-1.7-1.7 0-1 .6-1.7 1.6-1.7 1.1 0 1.4.7 1.4 1.7v.1l-2-.1zm-4.7 2.6c.5 0 1 .1 1.4.3v.1c-.1.1-.2.5-.3.6h-.1c-.2-.1-.6-.3-.9-.3-.4 0-.8.1-.8.5 0 .8 2.2.7 2.2 2.3 0 .9-.7 1.4-1.7 1.4-.5 0-1-.1-1.5-.4v-.1c.1-.2.1-.4.2-.7h.1c.4.2.7.4 1.1.4.4 0 .8-.2.8-.6 0-.9-2.1-.8-2.1-2.3 0-.8.7-1.2 1.6-1.2zm-5.3 1.4c1.1 0 1.4.7 1.4 1.7v.1h-1.9c0 .6.3 1.1.9 1.1.3 0 .6-.2.9-.3h.1v.5l-.1.1c-.3.2-.8.3-1.1.3-1.2 0-1.7-.8-1.7-1.7-.1-1.1.5-1.8 1.5-1.8zm-2.3-.3v2.4c0 .4 0 .7.1 1.1l-.1.1h-.9c-.1-.2-.1-.3-.1-.5-.4.3-.7.6-1.2.6-.7 0-1-.8-1-1.6 0-1.1.5-1.8 1.7-1.8h.5v-.8c0-.3 0-.5-.1-.7v-.1l.9-.1h.1c.2.3.1 1.1.1 1.4zm23.2-4.6c0 1 .6 1.7 1.4 1.7.5 0 .8-.1 1.2-.4h.1v.7l-.1.1c-.4.3-.9.4-1.3.4-1.3 0-2.3-1-2.3-2.5 0-1.4 1.1-2.3 2.3-2.3.5 0 .9.1 1.3.3v.1c0 .2-.1.3-.1.6h-.1c-.4-.2-.6-.3-1-.3-.7 0-1.4.6-1.4 1.6zm-12 4.9c1.1 0 1.4.7 1.4 1.7v.1h-1.9c0 .6.3 1.1.9 1.1.3 0 .6-.2.9-.3h.1v.5l-.1.1c-.3.2-.7.3-1.1.3-1.2 0-1.7-.8-1.7-1.7-.1-1.1.5-1.8 1.5-1.8zm22.1-5.8c1 0 1.6.7 1.6 1.7s-.6 1.7-1.6 1.7-1.6-.7-1.6-1.7.6-1.7 1.6-1.7zm-2.2-.3v2.4c0 .4 0 .7.1 1.1v.1h-.9c-.1-.3-.1-.5-.1-.8v-2.8c0-.4 0-.9-.1-1.3V33l.9-.1h.1v1.5zm-1.6 2.1c0 1-.6 1.7-1.6 1.7s-1.6-.7-1.6-1.7.6-1.7 1.6-1.7c1-.1 1.6.6 1.6 1.7zm-6.5 4.2l.9-.1h.1c.1.4.1 1 .1 1.4v1c0 .3 0 .5.1.7v.1h-.9c-.1-.3-.1-.5-.1-.8v-1c-.2-.4-.1-.8-.2-1.3zm-.4-.1l-.2.6h-.1c-.1 0-.2-.1-.3-.1-.3 0-.5.1-.6.3-.1.2-.1.4-.1 1v1.3l-.1.1h-.9l-.1-.1c.1-.4.1-.8.1-1.3s0-1.4-.1-1.8v-.1l.9-.1h.1c.1.2.1.3.1.5.2-.3.5-.5.9-.5.2.1.3.1.4.2zm-3.2 0c.2.5.1 1.5.1 2.1 0 .4 0 .8.1 1.2v.1h-.9c-.1-.2-.1-.3-.1-.5-.3.3-.7.5-1.2.5-.2 0-.4-.1-.6-.2-.2-.2-.2-.4-.2-.7v-1.5c0-.3 0-.5-.1-.7v-.1l.9-.1h.1c.1.1.1.2.1.4v1.7c0 .4 0 .5.3.5s.6-.3.7-.7v-.8c0-.3 0-.7-.1-1v-.1l.9-.1zm-3.2 3.7c0 .9-.8 1.4-1.8 1.4-.8 0-1.4-.2-1.4-.9 0-.4.2-.6.6-.9-.3 0-.5-.2-.5-.4 0-.3.3-.6.6-.8-.4-.3-.6-.5-.6-1 0-.8.5-1.2 1.4-1.2.4 0 .9.1 1.3.1h.5v.1c-.1.1-.1.2-.2.4h-.5c.2.2.3.4.3.7 0 .6-.5 1.2-1.2 1.2-.1 0-.3 0-.5-.1l-.3.3c0 .1.1.1.2.1l1.1.1c.6.1 1 .3 1 .9zm7.3-5.5c.3 0 .6.3.6.6s-.3.6-.6.6-.6-.3-.6-.6.3-.6.6-.6zM271 33c.1.2.1.7.1 1.2v1.1c.3-.2.7-.6 1.2-.6.7 0 1 .8 1 1.6 0 1.1-.5 1.8-1.7 1.8-.5 0-1-.1-1.4-.2v-.1-4V33h.8zm-2.4 1.7c.2 0 .4.1.6.2.2.2.2.5.2.8v1.2c0 .4 0 .7.1 1.1v.1h-.9c-.1-.1-.1-.2-.1-.4v-1.8c0-.3 0-.5-.3-.5-.2 0-.4.1-.5.3-.2.3-.1.9-.1 1.3v1.1h-.9l-.1-.1v-1.8c0-.6.1-.9-.3-.9-.2 0-.4.2-.5.3-.2.3-.1.9-.1 1.3V38h-.9l-.1-.1c.1-.4.1-.8.1-1.3s0-1.4-.1-1.8v-.1l.9-.1h.1c.1.2.1.3.1.5.4-.3.7-.5 1.2-.5.4 0 .6.2.7.5 0-.1.4-.4.9-.4zm-9.7 5.8c.4 0 .8.1 1 .3 0 0 .1.1.1.2.1.2.1.4.1.9 0 .6 0 1.6.1 2v.1h-.8c-.1-.1-.1-.3-.1-.5-.2.4-.5.6-.9.6-.6 0-1-.4-1-1 0-1.1 1.1-1.1 1.9-1.2v-.1c0-.4 0-.5-.5-.5-.4 0-.7.1-1.1.2l-.1-.1.1-.5.1-.1c.3-.2.7-.3 1.1-.3zm-2.2-.3v2.4c0 .4 0 .7.1 1.1l-.1.1h-.9c-.1-.2-.1-.3-.1-.5-.4.3-.7.6-1.2.6-.7 0-1-.8-1-1.6 0-1.1.5-1.8 1.7-1.8h.5v-.8c0-.3 0-.5-.1-.7v-.1l.9-.1h.1c.2.3.1 1.1.1 1.4zm7.2 0v2.4c0 .4 0 .7.1 1.1l-.1.1h-.9c-.1-.2-.1-.3-.1-.5-.4.3-.7.6-1.2.6-.7 0-1-.8-1-1.6 0-1.1.5-1.8 1.7-1.8h.5v-.8c0-.3 0-.5-.1-.7v-.1l.9-.1h.1c.1.3.1 1.1.1 1.4zM236 34.7c.2 0 .4.1.6.2.2.2.2.5.2.8v1.2c0 .4 0 .7.1 1.1v.1h-.9c-.1-.2-.1-.6-.1-.8v-.6-.8c0-.2 0-.5-.3-.5-.2 0-.4.1-.5.3-.2.3-.2.6-.1 1V38l-.1.1h-.9l-.1-.1c.1-.4 0-.8 0-1.3 0-.6 0-1.4-.1-1.8v-.1l.9-.1h.1c.1.2.1.3.1.5.2-.2.6-.5 1.1-.5zm-4.5 0c1 0 1.6.7 1.6 1.7s-.6 1.7-1.6 1.7-1.6-.7-1.6-1.7.6-1.7 1.6-1.7zm-2 2.3v.7l-.1.1c-.4.3-.9.4-1.3.4-1.3 0-2.3-1-2.3-2.5 0-1.4 1.1-2.3 2.3-2.3.5 0 .9.1 1.3.3v.1c0 .2-.1.3-.1.6h-.1c-.4-.2-.6-.3-1-.3-.8 0-1.5.6-1.5 1.6s.6 1.7 1.4 1.7c.7 0 1-.2 1.4-.4zm8.8-1.4c0 .6 1.5.4 1.5 1.5 0 .7-.6 1-1.3 1-.4 0-.8-.1-1.2-.4v-.1c.1-.1.1-.2.2-.4h.1c.3.2.6.3.9.3.3 0 .5-.1.5-.4 0-.7-1.5-.5-1.5-1.5 0-.6.6-.9 1.3-.9.4 0 .7.1 1.1.2v.1c-.1.1-.1.2-.2.4h-.1c-.2-.1-.4-.2-.7-.2-.3.1-.6.2-.6.4zm6-2.6c.3 0 .6.3.6.6s-.3.6-.6.6-.6-.3-.6-.6c.1-.3.3-.6.6-.6zm33.8 2s.1.1.1.2c.1.2.1.4.1.9 0 .6 0 1.6.1 2v.1h-.8c-.1-.1-.1-.3-.1-.5-.2.4-.5.6-.9.6-.6 0-1-.4-1-1 0-1.1 1.1-1.1 1.9-1.2V36c0-.4 0-.5-.5-.5-.4 0-.7.1-1.1.2l-.1-.1.1-.5.1-.1c.4-.1.8-.2 1.3-.2.2-.1.6 0 .8.2zm-3.2 2.2c0 .3 0 .5.1.7v.1h-.9c-.1-.3-.1-.5-.1-.8v-1c0-.4 0-.9-.1-1.3v-.1l.9-.1h.1c.1.4.1 1 .1 1.4v1.1zm.1-3.7zm-1.1.3zm10.4.9c1 0 1.6.7 1.6 1.7s-.6 1.7-1.6 1.7-1.6-.7-1.6-1.7.6-1.7 1.6-1.7zm-2.3 2.2c0 .4 0 .7.1 1.1v.1h-.9c-.1-.2-.1-.6-.1-.8v-.6-.8c0-.2 0-.5-.3-.5-.2 0-.4.1-.5.3-.2.3-.2.6-.2 1V38l-.1.1h-.9l-.1-.1c.1-.4 0-.8 0-1.3 0-.6 0-1.4-.1-1.8v-.1l.9-.1h.1c.1.2.1.3.1.5.4-.3.7-.5 1.2-.5.2 0 .4.1.6.2.2.2.2.5.2.8.1.4 0 .8 0 1.2zm-54 5.5v-.9c0-.4-.1-.5-.5-.5-.6 0-.8.6-.8 1.2 0 .5.1 1 .6 1 .4.1.7-.2.7-.8zm3.6-.6c0-.4-.2-.7-.5-.7s-.5.3-.5.8l1-.1zm31.3.6v-.9c0-.4-.1-.5-.5-.5-.6 0-.8.6-.8 1.2 0 .5.1 1 .6 1 .4.1.7-.2.7-.8zm-3.7.5v-.7c-.4 0-1 .1-1 .7 0 .2.1.4.4.4.2.1.4-.1.6-.4zm-3.4-.5v-.9c0-.4-.1-.5-.5-.5-.6 0-.8.6-.8 1.2 0 .5.1 1 .6 1 .3.1.7-.2.7-.8zm-11.6 2.1c0-.5-.5-.5-.9-.5-.3.3-.5.5-.5.8 0 .3.3.5.6.5.4 0 .8-.4.8-.8zm-3.7-2.7c0-.4-.2-.7-.5-.7s-.5.3-.5.8l1-.1zm-8.4-5.2c0-.7-.2-1.3-.6-1.3-.4 0-.6.4-.6 1 0 .7.2 1.3.6 1.3.4 0 .6-.4.6-1zm10.2-.6c0-.4-.2-.7-.5-.7s-.5.3-.5.8l1-.1zm5.4.6c0-.7-.2-1.3-.6-1.3-.4 0-.6.4-.6 1 0 .7.2 1.3.6 1.3.4 0 .6-.4.6-1zm9.6 0c0-.7-.2-1.3-.6-1.3-.4 0-.6.4-.6 1 0 .7.2 1.3.6 1.3.4 0 .6-.4.6-1zm5.5 0c0-.7-.2-1.3-.6-1.3-.4 0-.6.4-.6 1 0 .7.2 1.3.6 1.3.4 0 .6-.4.6-1zm22.1 0c0-.7-.2-1.3-.6-1.3-.4 0-.6.4-.6 1 0 .7.2 1.3.6 1.3.4 0 .6-.4.6-1zm-7.5.5v-.7c-.4 0-1 .1-1 .7 0 .2.1.4.4.4.2.1.4-.1.6-.4zm-5.1-.7c0-.5-.1-1-.6-1-.4 0-.7.3-.7.9v.9c0 .4.1.5.5.5.6-.1.8-.6.8-1.3zm-19.2-19.2c1.2 0 2.5.3 3.9.9l.1.3-.6 1.2-.2.4-.2.1c-.8-.3-1.7-.6-2.6-.6-.8 0-1.8.2-1.8.9 0 .8 1 1.2 2.1 1.8 1.6.8 3.7 1.7 3.7 4.1 0 2.3-1.8 3.7-4.9 3.7-1.2 0-2.6-.3-4.1-.9l-.1-.2c.2-.8.3-1 .4-1.9l.2-.1c1.1.5 2.1.8 3.1.8 1.2 0 2-.4 2-1.2 0-.8-1-1.3-2.1-1.8-1.6-.7-3.5-1.7-3.5-4.1.1-2 1.9-3.4 4.6-3.4zm-5.9 9.4l.4.1-.1 2-.2.3c-1.1.7-2.4 1.1-3.9 1.1-3.9 0-6.4-2.6-6.4-6.6 0-3.6 2.7-6.2 6.5-6.2 1.6 0 2.8.3 3.9 1l.2.3c-.1.4-.1.7-.1 1 0 .2 0 .4-.1.7v.1l-.3.1h-.1c-1-.4-1.7-.7-2.8-.7-2.2 0-3.8 1.7-3.8 3.9 0 2.5 1.5 4.2 3.7 4.2 1.2-.2 1.9-.6 3.1-1.3zm-11.2 0l.4.1-.1 2-.3.3c-1.1.7-2.4 1.1-3.9 1.1-3.9 0-6.4-2.6-6.4-6.6 0-3.6 2.7-6.2 6.5-6.2 1.6 0 2.8.3 3.9 1l.2.3c-.1.4-.1.7-.1 1 0 .2 0 .4-.1.7v.1l-.3.1h-.1c-1-.4-1.7-.7-2.8-.7-2.2 0-3.8 1.7-3.8 3.9 0 2.5 1.5 4.2 3.7 4.2 1.3-.2 2.1-.6 3.2-1.3zm7.4 14.4c-.3 0-.5.3-.5.7 0 .4.2.7.5.7s.5-.3.5-.7c0-.4-.2-.7-.5-.7zm89.8-7c0 .7-.6.7-1.2.7h-.2v-1.3h.6c.5 0 .8.2.8.6z"/><path d="M310.4 15.3c3.2-2.7 7.8-3.2 11.5-.9l.9-1.4 1.2 4.7-4.8.6.9-1.4c-2.5-1.5-5.6-1.2-7.7.6l-.4-2.7-1.6.5zm12.5 15c-3.4 2.7-8.2 2.9-11.8.3l-1 1.3-.9-4.8 4.9-.3-1 1.3c2.4 1.7 5.7 1.6 7.9-.2l.3 2.7 1.6-.3z" fill-rule="evenodd" clip-rule="evenodd" fill="#fcb52f"/><path d="M308.9 28.5c-2.3-3.1-2.6-7.5-.4-11l-1.4-.9 4.7-1.2.6 4.8-1.4-.9c-1.4 2.3-1.2 5.2.3 7.3l-2.7.2.3 1.7zm15.2-12.1c2.8 3.3 3.2 8.1.7 11.8l1.4 1-4.8 1.1-.5-4.8 1.4 1c1.6-2.5 1.4-5.7-.4-7.9l2.7-.4-.5-1.8z" fill-rule="evenodd" clip-rule="evenodd" fill="#f79233"/><path d="M223.5 11.9c.1 1.4 0 3.6-.5 6.2-1.1 5.2-4.3 11-10.1 12.3-.2 0-.4.1-.6.1h-.1c-.9.1-1.8.1-2.7 0l1.8-4.6c2.9-.1 5.8-1.3 7.7-3.7.8-1 1.4-2.1 1.8-3.3.2-.2.4-.4.5-.6 1.5-1.8 2.2-4.1 2.2-6.4m-24.9 16.6c1.3-4.1 5.2-6.9 9.5-7l1.8-4.6c-1-.1-1.9-.1-2.7 0h-.1c-.2 0-.4.1-.6.1-5.9 1.3-9 7.1-10.1 12.3-.6 2.6-.6 4.8-.5 6.2 0-2.3.7-4.6 2.3-6.5.1-.1.2-.3.3-.4l.1-.1z" fill-rule="evenodd" clip-rule="evenodd" fill="#00ab58"/><path d="M198.1 29.1c2.2-2.6 5.4-3.9 8.5-3.7l-1.8 4.7c-.4 0-.8.1-1.1.2-1.9.3-4 1.1-5.7 3.2l-.3.3c-.8 1-1.4 2.1-1.8 3.3v-.2c0-.2-.1-.7-.1-1.3 0-2.3.7-4.6 2.3-6.5m25.4-17.2c0 2.3-.7 4.6-2.3 6.5-2.2 2.6-5.4 3.9-8.5 3.7l1.8-4.7c.4 0 .8-.1 1.1-.2 1.9-.3 4-1.1 5.7-3.2l.3-.3c.8-1 1.4-2.1 1.8-3.3v.2c0 .2 0 .7.1 1.3z" fill-rule="evenodd" clip-rule="evenodd" fill="#8fc74a"/><path class="st0" d="M295 17.2h1.1v28.5H295z"/><path d="M23.6 21.2l-.4-.7-1.3 2.1 1.7-1.4zM54.6 1L28.7 29l-1.4-2.1-9.4 4.5 10.5 13.2L56.1 1h-1.5zm81.7 41.5H56.6v-1.3h79.7v1.3z" fill-rule="evenodd" clip-rule="evenodd" fill="#f60"/><path d="M159.2 52.6h2.2c.2 0 .3-.1.4-.2.1-.1.2-.3.2-.5s0-.3-.1-.4c-.1-.1-.3-.3-.5-.4l-1.3-.8c-.2-.1-.3-.2-.4-.3l-.3-.3c-.1-.1-.1-.2-.2-.3-.1-.2-.1-.3-.1-.5 0-.4.1-.7.3-1 .2-.2.5-.3 1-.3h2.1v.6h-2c-.2 0-.4 0-.5.1-.1.1-.2.3-.2.5v.2c0 .1 0 .1.1.2 0 .1.1.1.2.2s.2.1.3.2l1.2.7c.2.1.3.2.5.3.2.1.3.2.4.3.1.1.2.2.2.4.1.1.1.3.1.5v.5c0 .2-.1.3-.2.4-.1.1-.2.2-.4.3-.2.1-.3.1-.5.1h-2.4l-.1-.5zm-.6.6H156c-.3 0-.5 0-.6-.2-.2-.1-.2-.3-.2-.6v-4.1c0-.3.1-.5.2-.6.1-.1.3-.2.6-.2h2.5v.6H156c0 .1-.1.2-.1.3v1.5h2.5v.6H156v1.6c0 .1 0 .2.1.3 0 0 .2.1.3.1h2.2v.7zm-4.4-.6c0 .3 0 .5-.2.5-.2.1-.3.2-.5.2h-.3c-.1 0-.2 0-.2-.1-.1 0-.2-.1-.2-.2s-.1-.2-.2-.3l-1.5-4.3c0-.1 0-.1-.1-.1h-.1-.1V53.2h-.7v-5c0-.1 0-.2.1-.3 0-.1.1-.2.2-.2s.2-.1.2-.1h.2c.2 0 .4 0 .5.1.2 0 .3.2.3.4l1.6 4.3v.1h.1s.1 0 .1-.1V47.5h.7l.1 5.1zm-8.8-2.2v1c0 .3.1.5.2.7.1.2.2.3.4.4.2.1.5.1.8.1s.6 0 .8-.1c.2-.1.4-.2.5-.4.1-.2.2-.4.2-.7v-1-1.1c0-.3-.1-.5-.2-.7-.1-.2-.3-.3-.5-.4-.2-.1-.5-.1-.8-.1s-.6 0-.8.1c-.2.1-.3.2-.4.4-.1.2-.2.4-.2.7v1.1zm1.5-2.8c.5 0 .9 0 1.2.2.3.1.5.3.7.5.2.2.3.5.3.9.1.3.1.8.1 1.3s0 1-.1 1.3c-.1.3-.2.7-.3.9-.2.2-.4.4-.7.5-.3.1-.7.2-1.2.2s-.8-.1-1.2-.2c-.3-.1-.5-.3-.7-.5-.2-.2-.3-.5-.3-.9-.1-.4-.1-.8-.1-1.3s0-1 .1-1.3c.1-.4.2-.7.3-.9.2-.2.4-.4.7-.5.4-.2.7-.2 1.2-.2zm-4 5.6v-5.6h.8v5.6h-.8zm-2.1 0c-.5 0-.8-.1-1.1-.2-.3-.2-.5-.3-.7-.6-.2-.3-.2-.6-.3-.9 0-.3-.1-.7-.1-1.1 0-.4 0-.8.1-1.1.1-.3.2-.7.3-.9.2-.3.4-.5.7-.6.3-.1.7-.2 1.2-.2h1.4v.6h-1.1c-.3 0-.7.1-.9.2-.2.1-.4.2-.5.4-.1.2-.2.4-.3.7v2c0 .3.2.5.3.7.1.2.3.3.5.4.2.1.5.1.8.1h1.2v.6l-1.5-.1zm-6-2.1h2l-.8-2.6c0-.1 0-.2-.1-.2l-.1-.1s-.1 0-.1.1c0 0 0 .1-.1.2l-.8 2.6zm.2-2.9c.1-.2.2-.4.3-.5.1-.1.3-.2.5-.2s.4 0 .5.2c.2.1.2.3.3.5l1.6 5h-.8l-.5-1.5h-2.3l-.5 1.5h-.8l1.7-5zm-3.3 5c-.5 0-.8-.1-1.2-.2-.3-.2-.5-.3-.7-.6-.2-.3-.3-.6-.3-.9-.1-.3-.1-.7-.1-1.1 0-.4 0-.8.1-1.1 0-.3.2-.7.3-.9.2-.3.4-.5.7-.6.3-.1.7-.2 1.2-.2h1.3v.6h-1.1c-.3 0-.6.1-.8.2-.2.1-.4.2-.5.4-.1.2-.2.4-.2.7 0 .3-.1.6-.1 1s0 .7.1 1c0 .3.1.5.2.7.1.2.3.3.5.4.2.1.5.1.8.1h1.3v.6l-1.5-.1zm-3.9 0v-5.6h.8v5.6h-.8zm-3.8 0v-4.8c0-.3.1-.5.2-.6.2-.1.3-.2.6-.2h2.4v.6h-2.4c-.1.1-.1.2-.1.3V50h1.7v.6h-1.7v2.5h-.7zm-1.8 0v-5.6h.8v5.6h-.8zm-3 0v-5h-1.8v-.6h4.3v.6h-1.8v5h-.7zm-6.1 0v-4.8c0-.3.1-.5.2-.6.2-.1.3-.2.6-.2h1.7c.3 0 .5 0 .7.1.2.1.3.2.4.3.1.2.2.3.2.5s.1.4.1.7 0 .5-.1.7c0 .2-.1.4-.2.6-.1.2-.2.3-.4.3-.2.1-.3.2-.6.2h-.2l1.5 2.1h-.9l-1.4-2c0-.1-.1-.1-.1-.2V50.6c0-.1 0-.2.1-.2 0-.1.2-.1.2-.1h.5c.2 0 .3 0 .4-.1.1 0 .2-.1.2-.2s.1-.2.1-.4v-.5-.5c0-.2-.1-.3-.1-.3-.1-.1-.2-.2-.3-.2-.1 0-.3-.1-.5-.1H114c-.2 0-.2 0-.3.1-.1.1-.1.2-.1.3V53l-.5.2zm-.8 0h-2.5c-.3 0-.5 0-.6-.2-.2-.1-.2-.3-.2-.6v-4.1c0-.3.1-.5.2-.6.1-.1.3-.2.6-.2h2.5v.6h-2.5c0 .1-.1.2-.1.3v1.5h2.5v.6h-2.5v1.6c0 .1 0 .2.1.3 0 0 .2.1.3.1h2.2v.7zm-5.5 0c-.5 0-.9-.1-1.2-.2-.3-.2-.5-.3-.7-.6-.2-.3-.3-.6-.3-.9-.1-.3-.1-.7-.1-1.1 0-.4 0-.8.1-1.1 0-.3.2-.7.3-.9.2-.3.4-.5.7-.6.3-.1.7-.2 1.2-.2h1.3v.6H107c-.3 0-.7.1-.8.2-.2.1-.4.2-.5.4-.1.2-.2.4-.2.7 0 .3-.1.6-.1 1s0 .7.1 1c0 .3.1.5.2.7.1.2.3.3.5.4.2.1.5.1.8.1h1.3v.6l-1.5-.1zm-5.1-5.6h.8l-1.9 3.8v1.8h-.7v-1.8L98 47.6h.8l1.4 3.1 1.5-3.1zm-6 5c0 .3-.1.5-.2.5-.1.1-.3.2-.5.2h-.3c-.1 0-.2 0-.2-.1-.1 0-.2-.1-.2-.2-.1-.1-.1-.2-.2-.3l-1.6-4.3c0-.1 0-.1-.1-.1h-.1V53.2h-.7v-5c0-.1 0-.2.1-.3 0-.1.1-.2.2-.2s.2-.1.2-.1h.3c.2 0 .4 0 .5.1.2 0 .3.2.3.4l1.6 4.3v.1h.1v-.1V47.5h.7l.1 5.1zm-7-6.7l.4.5-1 .9-.4-.4 1-1zm-1.8 4.5c0 .4 0 .8.1 1 0 .3.1.5.2.7.1.2.3.3.5.4.2.1.5.1.8.1.3 0 .6 0 .8-.1.2-.1.3-.2.5-.4.1-.2.2-.4.2-.7 0-.3.1-.6.1-1s0-.8-.1-1.1c0-.3-.1-.5-.2-.7-.1-.2-.3-.3-.5-.4-.2-.1-.5-.1-.8-.1-.3 0-.6 0-.8.1-.2.1-.3.2-.5.4-.1.2-.2.4-.2.7-.1.4-.1.7-.1 1.1zm1.5-2.8c.5 0 .9 0 1.2.2.3.1.5.3.7.5.2.2.3.5.3.9.1.3.1.8.1 1.3s0 1-.1 1.3c0 .3-.2.7-.3.9-.2.2-.4.4-.7.5-.3.1-.7.2-1.2.2s-.8-.1-1.2-.2c-.3-.1-.5-.3-.7-.5-.2-.2-.3-.5-.3-.9-.1-.4-.1-.8-.1-1.3s0-1 .1-1.3c0-.4.2-.7.3-.9.2-.2.4-.4.7-.5.3-.2.7-.2 1.2-.2zm-3.9 5.6v-5.6h.7v5.6h-.7zm-2.2 0c-.5 0-.8-.1-1.2-.2-.3-.2-.5-.3-.7-.6-.2-.3-.3-.6-.3-.9-.1-.3-.1-.7-.1-1.1 0-.4 0-.8.1-1.1 0-.3.2-.7.3-.9.2-.3.4-.5.7-.6.3-.1.7-.2 1.2-.2h1.4v.6h-1.2c-.3 0-.6.1-.8.2-.2.1-.4.2-.5.4-.1.2-.2.4-.2.7 0 .3-.1.6-.1 1s0 .7.1 1c0 .3.1.5.2.7.1.2.3.3.5.4.2.1.5.1.8.1h1.3v.6l-1.5-.1zm-4.1 0c-.5 0-.8-.1-1.1-.2-.3-.2-.5-.3-.7-.6-.2-.3-.2-.6-.3-.9 0-.3-.1-.7-.1-1.1 0-.4 0-.8.1-1.1.1-.3.2-.7.3-.9.2-.3.3-.5.7-.6.3-.1.7-.2 1.2-.2h1.4v.6h-1.1c-.3 0-.7.1-.9.2-.2.1-.4.2-.5.4-.1.2-.2.4-.3.7v2c0 .3.2.5.3.7.1.2.3.3.5.4.2.1.5.1.8.1h1.2v.6l-1.5-.1zm-2.8 0h-2.6c-.2 0-.4 0-.6-.2-.1-.1-.2-.3-.2-.6v-4.1c0-.3.1-.5.2-.6.2-.1.3-.2.6-.2h2.5v.6h-2.5c0 .1-.1.2-.1.3v1.5h2.5v.6h-2.5v1.6c0 .1 0 .2.1.3.1 0 .2.1.3.1h2.2v.7zm-5.8-2.7c.2 0 .3 0 .5-.1.1 0 .2-.1.3-.2 0-.1.1-.2.1-.4v-.5-.5c0-.2-.1-.3-.2-.3 0-.1-.2-.2-.3-.2-.1 0-.3-.1-.5-.1h-1c-.2 0-.2 0-.3.1 0 .1-.1.2-.1.3v1.9h1.5zm-2.1-2.1c0-.3.1-.5.2-.6.2-.1.3-.2.6-.2h1.6c.3 0 .5 0 .7.1.2.1.3.2.4.3.1.2.2.3.2.5s.1.5.1.7c0 .3 0 .5-.1.7 0 .2-.1.4-.2.5-.1.2-.2.3-.4.3-.2.1-.4.1-.7.1h-1.6v2.1h-.7v-4.5zm-4.3 4.2h2.1c.2 0 .4-.1.5-.2.1-.1.2-.3.2-.5s0-.3-.2-.4c-.1-.1-.2-.3-.5-.4l-1.3-.8c-.2-.1-.3-.2-.4-.3l-.3-.3c-.1-.1-.2-.2-.2-.3 0-.2-.1-.3-.1-.5 0-.4.1-.7.3-1 .2-.2.5-.3 1-.3h2.1v.6h-2c-.2 0-.3 0-.5.1-.1.1-.2.3-.2.5v.2c0 .1 0 .1.1.2 0 .1.1.1.2.2 0 .1.2.1.3.2l1.2.7c.2.1.3.2.5.3.2.1.3.2.3.3.1.1.2.2.3.4 0 .1.1.3.1.5s0 .3-.1.5c0 .2-.1.3-.2.4l-.3.3c-.2.1-.3.1-.5.1h-2.4v-.5zm-.9 0c0 .3-.1.5-.2.5-.1.1-.3.2-.5.2h-.3c-.1 0-.2 0-.2-.1-.1 0-.2-.1-.2-.2-.1-.1-.1-.2-.2-.3l-1.6-4.3c0-.1 0-.1-.1-.1h-.1V53.2h-.7v-5-.3c.1-.1.1-.2.2-.2s.2-.1.2-.1h.3c.2 0 .4 0 .5.1.2 0 .3.2.3.4l1.6 4.3v.1h.1c.1 0 .1 0 .1-.1V47.5h.7v5.1zm-5.9.6v-5.6h.8v5.6h-.8z"/><path d="M12.3 37.4c2.7 5.8 8.6 9.9 15.5 9.9 9.4 0 17.1-7.7 17.1-17.1 0-1.2-.1-2.4-.4-3.6l4.5-7.2c1.6 3.2 2.5 6.9 2.5 10.7C51.6 43.3 40.9 54 27.8 54 18.2 54 10 48.4 6.2 40.3l6.1-2.9zm15.5-31c4.7 0 9.1 1.4 12.8 3.8l-4.8 4.9c-2.4-1.3-5.1-2-8.1-2-7.2 0-13.3 4.4-15.8 10.7L4 30.3v-.2c0-13 10.7-23.7 23.8-23.7zM154.5 45l-13.1-18.7c-.5-.7-.7-1.3-.8-2.1-.1-.7-.2-1.2-.2-1.6 0-1 .3-2 1-3.1L147.5 9h6.2l-7.3 11.4c-.2.4-.5.7-.6 1.1-.2.3-.3.7-.3 1 0 .4.2.8.4 1.3.3.4.5.9.8 1.3L160.8 45h-6.3z" fill-rule="evenodd" clip-rule="evenodd" fill="#9c3"/><path d="M120.5 36.9V9h5.3v27.9h-5.3zM67.8 11.8c.5-1.2 1.2-2 1.8-2.5.7-.5 1.7-.7 3-.7s2.2.2 3 .7c.7.5 1.3 1.3 1.8 2.5l11 25.1h-5.8l-3-7.1h-14l-3 7.1h-5.8l11-25.1zm-.9 14.4h11.2l-4.8-11.4c-.1-.2-.2-.5-.3-.7-.2-.3-.3-.4-.5-.4s-.3.2-.5.4c-.2.3-.3.5-.3.7l-4.8 11.4zM131.1 9h5.3v27.9h-5.3V9zm20.4 36l-13.1-18.7c-.5-.7-.7-1.3-.8-2.1-.1-.7-.2-1.2-.2-1.6 0-1 .3-2 1-3.1L144.6 9h6.2l-7.3 11.4c-.2.4-.4.7-.6 1.1-.2.3-.3.7-.3 1 0 .4.2.8.4 1.3.3.4.5.9.8 1.3L157.9 45h-6.4zM22.7 19.9L1 38.2l25.2-13-3.5-5.3zm67.1 12.9h18.3c.7 0 1.3-.1 1.6-.3.4-.2.7-.5.8-.8.2-.3.3-.7.3-1 .1-.3.1-.7.1-.9 0-.3 0-.5-.1-.8-.1-.3-.2-.6-.4-.8-.2-.3-.5-.5-.9-.8-.4-.2-.9-.5-1.6-.7l-12.1-3.5c-2-.6-3.4-1.5-4.1-2.7-.7-1.2-1.1-2.8-1.1-4.7 0-2 .5-3.6 1.7-4.9 1.2-1.2 3-1.9 5.4-1.9h17.7v4.2H99.2c-.7 0-1.3.2-1.8.6-.5.5-.8 1.2-.8 2.2 0 .3 0 .6.1.9 0 .3.2.6.3.8.2.3.5.5.8.8.4.2.8.4 1.5.6l11.3 3.2c1.1.3 2.1.7 2.9 1.1.8.4 1.5.9 2 1.5s.9 1.2 1.2 2c.3.8.4 1.7.4 2.8 0 1-.1 2-.4 2.9-.2.9-.6 1.6-1.2 2.3-.5.7-1.2 1.2-2 1.5-.8.4-1.8.5-3 .5H91.6l-1.8-4.1z" fill-rule="evenodd" clip-rule="evenodd" fill="#666"/></svg>