<?xml version="1.0" encoding="UTF-8"?> <!-- Creator: CorelDRAW X8 --> <svg xmlns="http://www.w3.org/2000/svg" xmlns:xlink="http://www.w3.org/1999/xlink" xml:space="preserve" width="56.3602mm" height="18.443mm" style="shape-rendering:geometricPrecision; text-rendering:geometricPrecision; image-rendering:optimizeQuality; fill-rule:evenodd; clip-rule:evenodd" viewBox="0 0 4216 1380"> <defs> <style type="text/css"> <![CDATA[ .fil3 {fill:#666666} .fil2 {fill:#A8CF45} .fil0 {fill:#FF6600} .fil1 {fill:black;fill-rule:nonzero} ]]> </style> </defs> <g id="Capa_x0020_1"> <metadata id="CorelCorpID_0Corel-Layer"></metadata> <path class="fil0" d="M3527 1080l-2078 0 0 -34 2078 0 0 34zm-2131 -1080l-673 729 -37 -56 -245 117 274 343 722 -1133 -41 0 0 0zm-808 527l-11 -18 -34 56 45 -38 0 0z"></path> <path class="fil1" d="M1444 1361l0 -146 20 0 0 146 -20 0zm154 -17c0,7 -2,12 -6,14 -3,3 -8,5 -13,5 -2,0 -5,-1 -7,-1 -2,0 -4,-1 -6,-2 -2,-1 -4,-2 -5,-4 -2,-2 -3,-4 -4,-7l-41 -112c-1,-2 -1,-3 -2,-3 0,-1 -1,-1 -2,-1 0,0 -1,0 -1,1 -1,0 -1,1 -1,3l0 124 -19 0 0 -131c0,-3 0,-6 1,-8 2,-3 3,-4 5,-6 2,-1 4,-2 6,-2 3,-1 5,-1 7,-1 5,0 10,1 13,3 4,1 7,5 9,10l41 113c0,1 1,2 1,3 1,0 1,1 2,1 2,0 2,-1 2,-2 1,-1 1,-1 1,-2l0 -124 19 0 0 129 0 0zm23 1l56 0c6,0 10,-2 12,-5 2,-3 4,-8 4,-14 0,-4 -1,-8 -4,-11 -2,-3 -6,-7 -13,-10l-33 -20c-4,-2 -7,-4 -10,-7 -3,-2 -6,-5 -8,-8 -2,-3 -4,-6 -5,-9 -1,-4 -2,-8 -2,-13 0,-11 3,-19 8,-25 6,-5 14,-8 26,-8l55 0 0 16 -52 0c-5,0 -9,1 -12,3 -3,3 -4,7 -4,14 0,2 0,4 0,6 1,2 1,3 2,5 1,2 3,3 5,5 1,2 4,3 7,5l30 19c4,2 8,5 12,7 4,3 7,6 9,8 3,3 5,6 7,10 1,3 2,8 2,13 0,5 0,9 -2,14 -1,4 -2,8 -5,11 -2,3 -5,5 -9,7 -4,2 -9,3 -14,3l-62 0 0 -16 0 0zm113 -110c0,-8 2,-13 5,-16 4,-3 9,-4 15,-4l42 0c7,0 13,1 18,3 5,2 9,5 11,9 3,4 5,8 6,14 1,6 2,12 2,19 0,7 -1,13 -2,19 -1,6 -3,10 -6,14 -2,4 -6,7 -11,9 -5,2 -11,3 -18,3l-43 0 0 56 -19 0 0 -126zm55 54c5,0 9,0 12,-2 3,-1 6,-3 8,-5 1,-3 2,-6 3,-10 0,-3 1,-8 1,-12 0,-5 -1,-9 -1,-13 -1,-4 -2,-7 -4,-9 -1,-3 -4,-4 -7,-6 -3,-1 -7,-2 -12,-2l-26 0c-4,0 -6,1 -8,2 -1,2 -2,4 -2,8l0 49 36 0 0 0zm151 72l-67 0c-6,0 -11,-1 -15,-4 -3,-3 -5,-9 -5,-16l0 -106c0,-8 2,-13 5,-16 4,-3 9,-4 15,-4l66 0 0 16 -57 0c-4,0 -6,0 -8,1 -1,2 -2,4 -2,8l0 38 65 0 0 16 -65 0 0 42c0,3 1,6 2,7 2,1 4,2 8,2l58 0 0 16 0 0zm73 0c-12,0 -22,-2 -29,-6 -8,-4 -14,-9 -18,-15 -4,-7 -6,-15 -8,-24 -1,-8 -2,-18 -2,-28 0,-10 1,-20 2,-29 2,-9 4,-17 9,-23 4,-7 9,-12 17,-16 8,-3 18,-5 30,-5l36 0 0 15 -29 0c-9,0 -17,2 -23,4 -5,2 -10,6 -13,10 -3,5 -5,11 -7,18 -1,7 -1,16 -1,26 0,10 0,18 1,25 1,8 4,14 7,18 3,5 7,8 13,11 5,2 13,3 22,3l32 0 0 16 -39 0 0 0zm106 0c-13,0 -22,-2 -30,-6 -7,-4 -13,-9 -17,-15 -4,-7 -7,-15 -8,-24 -2,-8 -2,-18 -2,-28 0,-10 0,-20 2,-29 1,-9 4,-17 8,-23 4,-7 10,-12 17,-16 8,-3 18,-5 31,-5l36 0 0 15 -30 0c-9,0 -16,2 -22,4 -6,2 -10,6 -14,10 -3,5 -5,11 -6,18 -1,7 -2,16 -2,26 0,10 1,18 2,25 1,8 3,14 6,18 3,5 8,8 13,11 6,2 13,3 22,3l33 0 0 16 -39 0 0 0zm57 0l0 -146 19 0 0 146 -19 0zm102 -148c13,0 23,1 31,4 8,3 14,7 18,13 5,6 8,13 9,23 2,9 3,21 3,35 0,14 -1,25 -3,35 -1,9 -4,17 -9,23 -4,6 -10,10 -18,13 -8,2 -18,4 -31,4 -12,0 -22,-2 -30,-4 -8,-3 -14,-7 -18,-13 -5,-6 -8,-14 -9,-23 -2,-10 -3,-21 -3,-35 0,-14 1,-26 3,-35 1,-10 4,-17 9,-23 4,-6 10,-10 18,-13 8,-3 18,-4 30,-4zm-40 75c0,11 1,20 2,27 0,8 2,14 5,18 3,5 7,9 12,11 5,2 12,3 21,3 9,0 16,-1 22,-3 5,-2 9,-6 12,-11 3,-4 5,-10 5,-18 1,-7 2,-16 2,-27 0,-11 -1,-20 -2,-28 0,-7 -2,-13 -5,-18 -3,-5 -7,-8 -12,-10 -6,-2 -13,-3 -22,-3 -9,0 -16,1 -21,3 -5,2 -9,5 -12,10 -3,5 -5,11 -5,18 -1,8 -2,17 -2,28zm49 -118l10 12 -27 24 -11 -11 28 -25zm182 174c0,7 -2,12 -6,14 -3,3 -8,5 -13,5 -2,0 -4,-1 -7,-1 -2,0 -4,-1 -6,-2 -2,-1 -4,-2 -5,-4 -2,-2 -3,-4 -4,-7l-41 -112c0,-2 -1,-3 -2,-3 0,-1 -1,-1 -1,-1 -1,0 -2,0 -2,1 -1,0 -1,1 -1,3l0 124 -19 0 0 -131c0,-3 0,-6 2,-8 1,-3 2,-4 4,-6 2,-1 4,-2 6,-2 3,-1 5,-1 7,-1 5,0 10,1 13,3 4,1 7,5 9,10l41 113c0,1 1,2 1,3 1,0 1,1 3,1 1,0 1,-1 1,-2 1,-1 1,-1 1,-2l0 -124 19 0 0 129 0 0zm156 -129l21 0 -49 100 0 46 -19 0 0 -46 -49 -100 21 0 37 80 37 -80 1 0zm134 146c-13,0 -23,-2 -30,-6 -8,-4 -13,-9 -17,-15 -4,-7 -7,-15 -8,-24 -2,-8 -2,-18 -2,-28 0,-10 0,-20 2,-29 1,-9 4,-17 8,-23 4,-7 10,-12 17,-16 8,-3 18,-5 31,-5l35 0 0 15 -29 0c-9,0 -17,2 -22,4 -6,2 -10,6 -14,10 -3,5 -5,11 -6,18 -1,7 -2,16 -2,26 0,10 0,18 2,25 1,8 3,14 6,18 3,5 7,8 13,11 6,2 13,3 22,3l33 0 0 16 -39 0 0 0zm143 0l-66 0c-7,0 -12,-1 -15,-4 -4,-3 -6,-9 -6,-16l0 -106c0,-8 2,-13 6,-16 3,-3 8,-4 15,-4l65 0 0 16 -57 0c-3,0 -6,0 -7,1 -1,2 -2,4 -2,8l0 38 64 0 0 16 -64 0 0 42c0,3 1,6 2,7 1,1 4,2 7,2l58 0 0 16 0 0zm21 0l0 -126c0,-8 2,-13 5,-16 4,-3 9,-4 16,-4l45 0c7,0 13,1 17,3 5,2 9,5 11,9 3,4 5,8 6,14 1,5 2,11 2,18 0,7 -1,13 -2,19 -1,6 -3,11 -5,15 -3,4 -6,7 -10,9 -4,2 -9,4 -15,4l-6 0 0 1 40 54 -24 0 -36 -51c-1,-2 -2,-3 -3,-5 -1,-1 -1,-3 -1,-5l0 -3c0,-2 0,-4 2,-5 1,-2 4,-2 6,-2l14 0c5,0 8,-1 11,-3 2,-1 4,-3 6,-6 1,-3 2,-6 2,-10 0,-3 1,-7 1,-12 0,-4 -1,-9 -1,-12 -1,-4 -2,-7 -3,-9 -2,-3 -4,-4 -7,-6 -3,-1 -7,-2 -12,-2l-30 0c-4,0 -6,1 -7,2 -2,2 -2,4 -2,8l0 121 -20 0 0 0zm158 0l0 -130 -47 0 0 -16 113 0 0 16 -47 0 0 130 -19 0zm79 0l0 -146 20 0 0 146 -20 0zm47 0l0 -126c0,-8 2,-13 5,-16 4,-3 9,-4 16,-4l63 0 0 16 -55 0c-4,0 -6,0 -7,1 -2,2 -2,4 -2,8l0 40 44 0 0 16 -44 0 0 65 -20 0 0 0zm99 0l0 -146 20 0 0 146 -20 0zm100 0c-13,0 -22,-2 -30,-6 -7,-4 -13,-9 -17,-15 -4,-7 -7,-15 -8,-24 -2,-8 -2,-18 -2,-28 0,-10 0,-20 2,-29 1,-9 4,-17 8,-23 4,-7 10,-12 18,-16 7,-3 17,-5 30,-5l35 0 0 15 -29 0c-9,0 -16,2 -22,4 -6,2 -10,6 -14,10 -3,5 -5,11 -6,18 -1,7 -2,16 -2,26 0,10 1,18 2,25 1,8 3,14 6,18 3,5 8,8 13,11 6,2 13,3 22,3l33 0 0 16 -39 0 0 0zm88 -131c2,-6 5,-10 8,-13 3,-3 8,-4 13,-4 5,0 10,1 13,4 4,3 6,7 8,13l42 131 -20 0 -13 -40 -60 0 -13 40 -20 0 42 -131 0 0zm-5 75l52 0 -21 -67c-1,-2 -1,-4 -2,-5 -1,-1 -2,-2 -3,-2 -1,0 -2,1 -3,2 -1,1 -1,3 -2,5l-21 67 0 0zm154 56c-12,0 -22,-2 -29,-6 -8,-4 -14,-9 -18,-15 -4,-7 -6,-15 -8,-24 -1,-8 -2,-18 -2,-28 0,-10 1,-20 2,-29 2,-9 4,-17 9,-23 4,-7 10,-12 17,-16 8,-3 18,-5 30,-5l36 0 0 15 -29 0c-9,0 -17,2 -23,4 -5,2 -10,6 -13,10 -3,5 -5,11 -7,18 -1,7 -1,16 -1,26 0,10 0,18 1,25 1,8 4,14 7,18 3,5 7,8 13,11 5,2 13,3 22,3l32 0 0 16 -39 0 0 0zm57 0l0 -146 20 0 0 146 -20 0zm103 -148c12,0 23,1 30,4 8,3 14,7 19,13 4,6 7,13 9,23 2,9 2,21 2,35 0,14 0,25 -2,35 -2,9 -5,17 -9,23 -5,6 -11,10 -19,13 -7,2 -18,4 -30,4 -12,0 -22,-2 -30,-4 -8,-3 -14,-7 -19,-13 -4,-6 -7,-14 -9,-23 -2,-10 -2,-21 -2,-35 0,-14 0,-26 2,-35 2,-10 5,-17 9,-23 5,-6 11,-10 19,-13 8,-3 18,-4 30,-4zm-40 75c0,11 0,20 1,27 1,8 3,14 6,18 2,5 6,9 11,11 6,2 13,3 22,3 9,0 16,-1 21,-3 6,-2 10,-6 13,-11 2,-4 4,-10 5,-18 1,-7 1,-16 1,-27 0,-11 0,-20 -1,-28 -1,-7 -3,-13 -5,-18 -3,-5 -7,-8 -13,-10 -5,-2 -12,-3 -21,-3 -9,0 -16,1 -22,3 -5,2 -9,5 -11,10 -3,5 -5,11 -6,18 -1,8 -1,17 -1,28zm230 56c0,7 -1,12 -5,14 -4,3 -8,5 -13,5 -3,0 -5,-1 -7,-1 -2,0 -4,-1 -6,-2 -2,-1 -4,-2 -6,-4 -1,-2 -3,-4 -4,-7l-40 -112c-1,-2 -1,-3 -2,-3 -1,-1 -1,-1 -2,-1 0,0 -1,0 -2,1 0,0 -1,1 -1,3l0 124 -19 0 0 -131c0,-3 1,-6 2,-8 1,-3 3,-4 5,-6 2,-1 4,-2 6,-2 2,-1 4,-1 6,-1 6,0 10,1 14,3 4,1 7,5 8,10l42 113c0,1 0,2 1,3 0,0 1,1 2,1 1,0 2,-1 2,-2 0,-1 0,-1 0,-2l0 -124 19 0 0 129 0 0zm114 17l-66 0c-7,0 -12,-1 -15,-4 -4,-3 -6,-9 -6,-16l0 -106c0,-8 2,-13 6,-16 3,-3 8,-4 15,-4l65 0 0 16 -57 0c-3,0 -6,0 -7,1 -1,2 -2,4 -2,8l0 38 64 0 0 16 -64 0 0 42c0,3 1,6 2,7 1,1 4,2 7,2l58 0 0 16 0 0zm17 -16l57 0c5,0 9,-2 11,-5 3,-3 4,-8 4,-14 0,-4 -1,-8 -3,-11 -2,-3 -7,-7 -13,-10l-33 -20c-4,-2 -8,-4 -11,-7 -3,-2 -5,-5 -8,-8 -2,-3 -3,-6 -4,-9 -2,-4 -2,-8 -2,-13 0,-11 2,-19 8,-25 5,-5 13,-8 25,-8l55 0 0 16 -51 0c-6,0 -10,1 -13,3 -2,3 -4,7 -4,14 0,2 0,4 1,6 0,2 1,3 2,5 1,2 2,3 4,5 2,2 4,3 7,5l30 19c4,2 8,5 12,7 4,3 7,6 10,8 3,3 5,6 6,10 2,3 2,8 2,13 0,5 0,9 -1,14 -1,4 -3,8 -5,11 -3,3 -6,5 -10,7 -4,2 -8,3 -14,3l-62 0 0 -16 0 0z"></path> <path class="fil2" d="M4000 1146l-341 -487c-12,-17 -19,-35 -22,-54 -3,-18 -5,-32 -5,-43 0,-25 9,-52 25,-81l161 -272 161 0 -191 298c-6,10 -12,19 -16,28 -5,9 -8,18 -8,26 0,11 4,22 11,33 7,11 14,23 22,34l369 518 -166 0 0 0zm-3301 -1006c123,0 238,36 334,98l-124 129c-63,-34 -134,-53 -210,-53 -187,0 -347,115 -413,278l-207 172c0,-1 0,-3 0,-4 0,-342 277,-620 620,-620l0 0zm-405 808c71,152 225,258 405,258 246,0 445,-200 445,-446 0,-32 -3,-63 -10,-93l118 -187c42,84 66,179 66,280 0,342 -277,620 -619,620 -249,0 -463,-146 -562,-357l157 -75 0 0z"></path> <path class="fil3" d="M2314 827l478 0c19,0 33,-3 43,-9 10,-6 17,-13 22,-21 5,-8 8,-17 9,-26 2,-9 2,-17 2,-23 0,-7 -1,-14 -2,-22 -2,-7 -5,-15 -10,-22 -6,-7 -14,-14 -24,-21 -10,-6 -24,-12 -42,-17l-316 -90c-53,-16 -89,-39 -108,-70 -19,-31 -28,-72 -28,-122 0,-52 14,-94 44,-127 29,-32 75,-48 139,-48l462 0 0 109 -422 0c-19,0 -35,5 -48,16 -13,12 -20,30 -20,57 0,8 1,16 2,24 1,7 4,15 9,22 5,7 12,14 21,20 10,5 22,11 38,16l294 84c29,8 54,18 75,28 21,10 38,23 52,38 14,15 24,32 30,53 7,20 10,45 10,73 0,27 -3,52 -10,75 -6,23 -16,43 -30,59 -14,17 -32,30 -53,39 -22,10 -48,14 -79,14l-490 0 -48 -109 0 0zm-1749 -335l-565 477 657 -339 -92 -138zm3359 654l-341 -487c-12,-17 -19,-35 -22,-54 -3,-18 -5,-32 -5,-43 0,-25 9,-52 25,-81l161 -272 161 0 -191 298c-6,10 -11,19 -16,28 -5,9 -8,18 -8,26 0,11 4,22 11,33 7,11 14,23 22,34l369 518 -166 0 0 0zm-534 -937l137 0 0 727 -137 0 0 -727zm-1672 446l293 0 -124 -297c-2,-5 -5,-12 -9,-19 -4,-7 -8,-11 -13,-11 -5,0 -9,4 -13,11 -4,7 -7,14 -9,19l-125 297zm22 -373c14,-30 30,-51 47,-64 18,-12 44,-18 78,-18 33,0 58,6 77,18 18,13 34,34 48,64l287 654 -151 0 -79 -184 -366 0 -77 184 -151 0 287 -654zm1375 654l0 -727 138 0 0 727 -138 0z"></path> </g> </svg> 