<?xml version="1.0" encoding="UTF-8"?> <!-- Creator: CorelDRAW X8 --> <svg xmlns="http://www.w3.org/2000/svg" xmlns:xlink="http://www.w3.org/1999/xlink" xml:space="preserve" width="94.5254mm" height="107.407mm" style="shape-rendering:geometricPrecision; text-rendering:geometricPrecision; image-rendering:optimizeQuality; fill-rule:evenodd; clip-rule:evenodd" viewBox="0 0 21743 24706"> <defs> <style type="text/css"> <![CDATA[ .str0 {stroke:#373435;stroke-width:243.432} .fil8 {fill:none} .fil12 {fill:none;fill-rule:nonzero} .fil5 {fill:#FEFEFE} .fil19 {fill:#D2D3D5} .fil6 {fill:#FFCC29} .fil0 {fill:black} .fil1 {fill:#FF6600} .fil7 {fill:#FFCC00} .fil11 {fill:#F0C135;fill-rule:nonzero} .fil20 {fill:#A8CF45;fill-rule:nonzero} .fil2 {fill:black;fill-rule:nonzero} .fil18 {fill:#140F1B;fill-rule:nonzero} .fil13 {fill:#16121E;fill-rule:nonzero} .fil9 {fill:#170F12;fill-rule:nonzero} .fil15 {fill:#C2A941;fill-rule:nonzero} .fil14 {fill:#C6AC4F;fill-rule:nonzero} .fil17 {fill:#D7C551;fill-rule:nonzero} .fil16 {fill:#F3E193;fill-rule:nonzero} .fil10 {fill:#FF6600;fill-rule:nonzero} .fil3 {fill:url(#id12)} .fil4 {fill:url(#id13)} ]]> </style> <clipPath id="id0"> <path d="M9589 4825l6762 11679 -13523 0 6761 -11679z"></path> </clipPath> <mask id="id1"> <linearGradient id="id2" gradientUnits="userSpaceOnUse" x1="12011.5" y1="16346.7" x2="10191.2" y2="9516.57"> <stop offset="0" style="stop-opacity:1; stop-color:white"></stop> <stop offset="1" style="stop-opacity:0; stop-color:white"></stop> </linearGradient> <rect style="fill:url(#id2)" x="2805" y="4802" width="13569" height="11725"></rect> </mask> <clipPath id="id3" style="clip-rule:nonzero"> <path d="M2632 10187c-177,-133 -391,-237 -618,-227 -162,13 -286,165 -297,321 18,185 107,352 188,516 82,159 127,334 167,508 26,175 11,354 -29,526 -83,349 -129,705 -160,1061 -10,115 -4,231 -24,344 -81,-198 -50,-419 -78,-627 -61,-67 -166,-85 -255,-98 -156,-23 -280,105 -347,231 -135,265 -161,570 -153,862 14,407 111,805 242,1188 47,100 100,198 167,286 198,302 539,527 907,532 189,-10 397,-77 486,-259 -48,-44 -97,-89 -136,-142 150,36 290,106 439,146 406,112 837,117 1252,54 164,-46 340,-53 498,-123 107,-49 226,-69 331,-122 285,-132 575,-282 779,-528 89,-104 142,-245 114,-381 -45,-147 -169,-245 -283,-336 -40,-24 -12,-66 3,-94 106,-195 251,-386 262,-615 58,-159 -43,-322 -157,-427 -101,-99 -242,-139 -349,-225 -6,-125 31,-251 5,-376 -21,-96 -46,-191 -84,-282 -123,-200 -350,-302 -569,-357 -367,-92 -762,-41 -1103,116 -157,73 -310,194 -338,375 198,4 383,-79 573,-125 141,-29 262,-117 405,-141 -130,207 -365,318 -590,394 -211,64 -430,120 -652,107l-16 12c-62,-28 -133,-47 -181,-98 -32,-79 -62,-166 -47,-253 22,-169 79,-331 89,-501 43,-150 36,-311 38,-467 -14,-321 -230,-590 -479,-775zm-767 3639c-1,-107 -1,-216 29,-320 61,198 101,402 169,598 82,279 261,512 403,761 -200,-129 -351,-323 -456,-535 -69,-161 -107,-333 -145,-504z"></path> </clipPath> <mask id="id4"> <linearGradient id="id5" gradientUnits="userSpaceOnUse" x1="3197.44" y1="10452.9" x2="3017.57" y2="13397.7"> <stop offset="0" style="stop-opacity:1; stop-color:white"></stop> <stop offset="1" style="stop-opacity:0; stop-color:white"></stop> </linearGradient> <rect style="fill:url(#id5)" x="1016" y="9951" width="5105" height="5668"></rect> </mask> <clipPath id="id6" style="clip-rule:nonzero"> <path d="M19512 8394c208,-83 458,-27 622,121 134,112 140,312 99,470 -59,274 -260,482 -435,690 -300,316 -617,617 -920,931 -14,20 -44,59 -58,79 122,-21 225,-93 338,-140 456,-204 917,-410 1408,-516 214,-38 443,-79 651,4 211,114 341,358 319,596 -19,184 -135,349 -293,443 -189,125 -423,131 -634,197 -305,91 -599,217 -883,358 -100,51 -203,98 -294,165 122,29 248,23 369,55 197,49 409,135 507,325 70,113 48,257 -10,369 -45,118 -147,195 -238,275 -175,140 -396,226 -620,234 -148,28 -302,9 -439,-50 -157,-75 -254,-243 -257,-414 8,-157 135,-273 256,-358 212,-151 465,-246 725,-267 -165,-43 -337,-16 -497,29 -169,47 -326,129 -466,235 -71,91 -165,175 -185,294 -38,149 24,297 71,436 -68,70 -162,112 -247,158 -193,95 -423,172 -636,106 -81,-37 -165,-67 -253,-79 68,65 148,118 239,145 29,10 59,19 82,40 11,76 6,189 -82,215 -125,46 -262,22 -387,-11 -352,-99 -661,-312 -923,-562 -308,-294 -588,-626 -773,-1011 -72,-166 -149,-357 -83,-537 79,-123 270,-165 395,-92 60,124 87,264 166,380 -150,-364 -194,-781 -80,-1161 106,-317 307,-588 483,-869 114,-174 219,-376 200,-591 -3,-55 -7,-110 -2,-164 -69,-193 -134,-457 42,-616 143,-107 337,-72 493,-14 128,37 233,121 335,204 163,127 268,337 248,545 -20,300 -107,608 -313,834 -77,102 -209,145 -273,260 44,99 159,111 246,158 407,212 626,771 400,1186 -95,165 -221,316 -374,430 -41,42 -83,84 -121,129 48,-13 95,-29 143,-43l1 -18c235,-132 448,-328 545,-585 130,-312 51,-680 -137,-951 -93,-146 -237,-242 -369,-346 103,-78 229,-113 340,-178 173,-94 314,-231 445,-376 140,-231 322,-434 486,-649 178,-199 371,-404 628,-498zm-3237 3558l0 0c17,93 76,170 131,246 217,288 494,533 812,705 40,23 88,24 133,27 -139,-120 -289,-229 -413,-365 -235,-189 -434,-419 -663,-613z"></path> </clipPath> <mask id="id7"> <linearGradient id="id8" gradientUnits="userSpaceOnUse" x1="17177.3" y1="8418.84" x2="17962.3" y2="10808.8"> <stop offset="0" style="stop-opacity:1; stop-color:white"></stop> <stop offset="1" style="stop-opacity:0; stop-color:white"></stop> </linearGradient> <rect style="fill:url(#id8)" x="15551" y="8228" width="5996" height="5346"></rect> </mask> <clipPath id="id9"> <path d="M9487 6128c2056,0 3936,304 5385,808 410,1390 175,2397 175,2397 -3580,2363 -5449,-435 -5449,-435 0,0 -1869,2798 -5450,435 0,0 -244,-1047 201,-2480 1412,-454 3197,-725 5138,-725z"></path> </clipPath> <mask id="id10"> <linearGradient id="id11" gradientUnits="userSpaceOnUse" x1="1821.72" y1="4230.62" x2="9240.94" y2="6850.92"> <stop offset="0" style="stop-opacity:1; stop-color:white"></stop> <stop offset="1" style="stop-opacity:0; stop-color:white"></stop> </linearGradient> <rect style="fill:url(#id11)" x="2803" y="5029" width="15897" height="2742"></rect> </mask> <linearGradient id="id12" gradientUnits="userSpaceOnUse" x1="5710.19" y1="23719.1" x2="5710.19" y2="18780"> <stop offset="0" style="stop-opacity:1; stop-color:#D7D8D9"></stop> <stop offset="1" style="stop-opacity:1; stop-color:#FEFEFE"></stop> </linearGradient> <linearGradient id="id13" gradientUnits="userSpaceOnUse" xlink:href="#id12" x1="12814.4" y1="24606.7" x2="12814.4" y2="18695"> </linearGradient> </defs> <g id="Capa_x0020_1"> <metadata id="CorelCorpID_0Corel-Layer"></metadata> <ellipse class="fil0" cx="15980" cy="12836" rx="1024" ry="852"></ellipse> <ellipse class="fil0" cx="1024" cy="14162" rx="1024" ry="852"></ellipse> <ellipse class="fil1" cx="9589" cy="580" rx="565" ry="421"></ellipse> <path class="fil2" d="M9589 0c191,0 365,59 494,155 142,106 230,256 230,425 0,169 -88,319 -230,425 -129,96 -303,155 -494,155 -190,0 -365,-59 -494,-155 -142,-106 -230,-256 -230,-425 0,-169 88,-319 230,-425 129,-96 304,-155 494,-155zm305 410c-76,-56 -184,-91 -305,-91 -121,0 -229,35 -305,91 -62,47 -100,107 -100,170 0,63 38,123 100,170 76,56 184,91 305,91 121,0 229,-35 305,-91 62,-47 100,-107 100,-170 0,-63 -38,-123 -100,-170z"></path> <path class="fil3" d="M6940 18867l-660 -87c0,0 -296,299 -83,1069 212,770 0,1169 0,1169 0,0 -1633,-439 -2390,66 -757,504 -544,1181 -544,1181l-164 -34 4 924c0,0 151,121 350,221l92 -169c0,0 -54,161 69,253 123,92 514,292 1265,246l31 -177c0,0 0,161 61,184 62,23 913,-15 1296,-222l46 -199c0,0 -46,161 46,191 92,31 491,-115 728,-329 238,-215 276,-284 276,-284l39 -230c0,0 -62,276 107,261 169,-16 583,-169 613,-399 31,-230 43,-1633 -128,-1909 0,0 429,-648 305,-1535l-782 -76 -577 -115z"></path> <path class="fil2" d="M6921 18965l-598 -79c-60,94 -186,374 -31,937 223,808 -6,1239 -7,1240l-114 51c-4,-1 -1590,-427 -2309,53l0 0c-695,463 -504,1068 -504,1070l-116 126 -43 -9 3 751c43,32 118,84 211,137l45 -82 182 77c0,0 -31,95 34,144 66,50 223,135 494,188 167,32 374,51 627,41l17 -98 197 17c0,0 -7,90 -3,91 31,12 349,-3 682,-60 181,-31 361,-75 493,-137l30 -130c3,-17 6,-27 6,-27l193 48 -18 76c32,7 143,-28 276,-88 123,-55 254,-133 353,-222l0 0c170,-155 229,-223 248,-247l28 -172c4,-25 7,-42 7,-42l196 37 -12 71c-4,37 -5,76 12,75 87,-8 251,-59 378,-142 77,-50 138,-109 146,-171 18,-137 29,-709 -3,-1197 -20,-297 -55,-556 -112,-647l1 -106c1,-2 384,-581 300,-1390l-702 -68 -10 -2 -577 -114zm-629 -283l667 87 575 115 774 75 89 85c109,779 -192,1382 -290,1554 58,143 93,399 112,681 34,498 21,1091 2,1236 -17,128 -113,233 -235,312 -154,100 -358,162 -468,172 -49,5 -87,-2 -118,-16 -42,49 -116,127 -246,244l0 0c-117,105 -266,194 -404,256 -178,81 -350,118 -422,94l-1 0 -9 -3 -4 4c-154,84 -374,141 -592,178 -364,63 -740,67 -785,50 -12,-4 -23,-10 -33,-18l-19 17c-307,19 -557,-2 -754,-41 -308,-59 -495,-163 -576,-224 -38,-29 -65,-61 -83,-95l-63 20c-210,-105 -367,-232 -367,-232l-38 -78 -4 -923 119 -98 21 4c-22,-247 22,-744 612,-1137l0 0c688,-459 2034,-183 2385,-101 45,-138 114,-479 -36,-1024 -228,-825 106,-1163 107,-1164l84 -30z"></path> <path class="fil0" d="M6083 20928c-31,98 -57,148 -57,148 0,0 807,258 1232,777 0,0 -268,-560 -1175,-925z"></path> <path class="fil0" d="M3358 22213l-259 18c504,911 2471,771 2471,771 -1815,0 -2212,-789 -2212,-789z"></path> <path class="fil4" d="M10980 18937l-214 28c0,0 -155,584 263,1381 0,0 -29,389 10,691 39,301 0,437 -78,573 -78,136 19,525 19,525 0,0 -228,88 -275,645 -47,556 -74,925 54,1052 127,128 416,168 416,168l6 -255c0,0 21,260 198,414 177,154 480,238 480,238l84 -205c0,0 -42,232 70,274 111,42 1247,279 2025,25 777,-254 859,-467 859,-467l0 -630c0,0 188,-532 -74,-1064 -262,-532 -1227,-834 -1915,-744 0,0 -114,-271 -237,-655 -123,-385 -49,-679 106,-884 156,-205 294,-1146 -181,-1310 -474,-163 -1616,200 -1616,200z"></path> <path class="fil2" d="M10993 19035l-143 19c-24,166 -52,637 267,1246l11 53c0,1 -28,381 9,671 21,161 21,280 5,377 -17,103 -50,181 -95,259 -57,101 30,451 30,452l-59 115c0,0 -172,65 -213,561 -24,277 -42,507 -39,678 3,151 20,253 63,296l0 0c59,59 167,96 250,117l3 -136 198 -7c0,1 18,221 164,348 105,91 262,156 358,190l49 -120 190 54c0,0 -27,153 6,165 68,26 542,128 1078,134 298,4 613,-23 882,-111 614,-200 759,-352 790,-396l0 -606 6 -32c0,-1 174,-494 -69,-988 -113,-230 -378,-415 -695,-538 -357,-139 -774,-197 -1118,-152l-105 -61c0,0 -115,-272 -240,-662 -62,-195 -77,-370 -59,-523 22,-178 88,-329 181,-451 17,-22 36,-62 53,-113 49,-141 82,-350 71,-549 -11,-187 -62,-363 -177,-451 -23,-17 -50,-32 -81,-42 -443,-153 -1550,199 -1554,200l-17 3zm-240 -169l204 -27c96,-30 1188,-363 1672,-196 50,17 95,42 135,73 170,129 242,359 256,597 14,227 -25,465 -80,625 -24,70 -53,128 -84,169 -72,95 -124,213 -141,354 -16,128 -2,274 51,440 84,265 165,475 206,578 359,-32 778,32 1138,172 361,140 666,358 803,635 252,514 114,1026 84,1124l0 615 -8 38c0,0 -99,255 -921,523 -291,95 -628,123 -946,120 -560,-7 -1069,-119 -1144,-147 -47,-17 -79,-50 -101,-89l-45 22c-1,0 -324,-89 -518,-258 -54,-47 -96,-102 -128,-158l-26 23c-1,-1 -321,-45 -472,-196l1 0c-85,-85 -118,-231 -122,-434 -3,-186 16,-418 39,-697 35,-416 175,-602 263,-679 -25,-127 -69,-403 6,-532 33,-59 58,-117 71,-192 13,-79 12,-180 -6,-320 -34,-264 -18,-588 -12,-682 -419,-819 -259,-1425 -259,-1427l84 -74z"></path> <path class="fil5 str0" d="M10888 18767c270,-205 1030,-242 1415,-152 384,90 671,384 352,687 -390,370 -1206,265 -1641,11 -228,-133 -365,-321 -126,-546zm-3560 -173c566,67 1002,298 973,514 -28,217 -510,338 -1076,271 -566,-67 -968,-397 -962,-552 5,-155 498,-300 1065,-233z"></path> <path class="fil0" d="M11478 22178c0,0 718,-402 1550,-494l221 -129 -205 -39c0,0 -700,39 -1566,662z"></path> <path class="fil0" d="M12200 23829c0,0 1470,127 2606,-453l0 163c-454,204 -1289,434 -2606,290z"></path> <path class="fil1 str0" d="M10836 17093c296,770 379,1908 401,2325 353,133 820,179 1164,42 -91,-388 -265,-1339 -92,-2367l-1473 0zm-4121 41c84,647 110,1382 -14,2096 147,70 326,125 524,149 231,28 448,24 626,-5 -5,-253 -26,-1610 144,-2240l-1280 0z"></path> <path class="fil0" d="M10377 3010l7942 13718c168,289 168,621 1,911 -167,290 -454,456 -789,456l-15884 0c-335,0 -622,-166 -789,-456 -167,-290 -167,-622 1,-911l7942 -13718c167,-289 454,-454 788,-454 334,0 621,165 788,454z"></path> <polygon class="fil6" points="9589,4825 16351,16504 2828,16504 "></polygon> <g style="clip-path:url(#id0)"> <g id="_1504056064800"> <polygon id="1" class="fil7" points="9589,4825 16351,16504 2828,16504 "></polygon> <polygon class="fil1" style="mask:url(#id1)" points="9589,4825 16351,16504 2828,16504 "></polygon> </g> </g> <polygon class="fil8" points="9589,4825 16351,16504 2828,16504 "></polygon> <polygon class="fil0" points="9306,8771 8662,9222 7246,14092 10272,12998 9458,14684 8765,14414 9249,16051 10903,15245 10184,14966 12439,11603 9735,12590 11044,9307 "></polygon> <path class="fil9" d="M2395 9795c-176,-64 -379,-87 -557,-15 -179,71 -302,248 -332,434 -27,224 90,428 185,621 95,178 169,368 199,569 26,200 -19,398 -47,595 -25,158 -28,319 -57,476 -98,-41 -197,-89 -305,-90 -128,6 -255,59 -339,156 -189,210 -259,495 -291,769 -53,513 53,1027 219,1511 157,418 498,779 935,901 225,66 478,52 685,-65 104,-59 171,-161 234,-258 147,52 295,103 445,143 493,104 1012,104 1498,-33 210,-59 423,-112 615,-217 262,-124 520,-277 703,-506 94,-118 168,-265 159,-420 -24,-120 -47,-253 -139,-342 -67,-75 -159,-118 -246,-165 205,-195 387,-448 387,-743 -17,-142 -58,-290 -160,-396 -118,-124 -283,-196 -451,-220 34,-121 97,-235 106,-362 -12,-90 -32,-179 -60,-265 -58,-200 -224,-348 -401,-446 -403,-207 -892,-220 -1318,-75 -212,77 -428,181 -572,362 -80,97 -96,226 -116,346 -56,-4 -112,-8 -168,-13 0,-159 55,-309 86,-463 50,-230 68,-466 55,-700 -19,-152 -66,-302 -150,-431 -187,-298 -472,-533 -802,-658zm237 392l0 0c249,185 465,454 479,775 -2,156 5,317 -38,467 -10,170 -67,332 -89,501 -15,87 15,174 47,253 48,51 119,70 181,98l16 -12c222,13 441,-43 652,-107 225,-76 460,-187 590,-394 -143,24 -264,112 -405,141 -190,46 -375,129 -573,125 28,-181 181,-302 338,-375 341,-157 736,-208 1103,-116 219,55 446,157 569,357 38,91 63,186 84,282 27,125 -11,251 -5,376 107,86 248,126 349,225 114,105 215,268 157,427 -11,229 -156,420 -262,615 -15,28 -43,70 -3,94 114,91 238,189 283,336 28,136 -25,277 -114,381 -204,246 -494,396 -779,528 -105,53 -224,73 -331,122 -158,70 -333,77 -498,123 -415,63 -846,58 -1252,-54 -149,-40 -289,-110 -439,-146 39,53 88,98 136,142 -89,182 -297,249 -486,259 -368,-5 -709,-230 -907,-532 -67,-88 -120,-186 -167,-286 -131,-383 -228,-781 -242,-1188 -8,-292 18,-597 153,-862 67,-126 191,-254 347,-231 89,13 194,31 255,98 28,208 -3,429 78,627 20,-113 14,-229 24,-344 31,-356 77,-712 160,-1061 40,-172 55,-351 29,-526 -40,-174 -85,-349 -167,-508 -81,-164 -170,-331 -188,-516 11,-156 135,-308 297,-321 227,-10 441,94 618,227z"></path> <path class="fil10" d="M2632 10187c-177,-133 -391,-237 -618,-227 -162,13 -286,165 -297,321 18,185 107,352 188,516 82,159 127,334 167,508 26,175 11,354 -29,526 -83,349 -129,705 -160,1061 -10,115 -4,231 -24,344 -81,-198 -50,-419 -78,-627 -61,-67 -166,-85 -255,-98 -156,-23 -280,105 -347,231 -135,265 -161,570 -153,862 14,407 111,805 242,1188 47,100 100,198 167,286 198,302 539,527 907,532 189,-10 397,-77 486,-259 -48,-44 -97,-89 -136,-142 150,36 290,106 439,146 406,112 837,117 1252,54 164,-46 340,-53 498,-123 107,-49 226,-69 331,-122 285,-132 575,-282 779,-528 89,-104 142,-245 114,-381 -45,-147 -169,-245 -283,-336 -40,-24 -12,-66 3,-94 106,-195 251,-386 262,-615 58,-159 -43,-322 -157,-427 -101,-99 -242,-139 -349,-225 -6,-125 31,-251 5,-376 -21,-96 -46,-191 -84,-282 -123,-200 -350,-302 -569,-357 -367,-92 -762,-41 -1103,116 -157,73 -310,194 -338,375 198,4 383,-79 573,-125 141,-29 262,-117 405,-141 -130,207 -365,318 -590,394 -211,64 -430,120 -652,107l-16 12c-62,-28 -133,-47 -181,-98 -32,-79 -62,-166 -47,-253 22,-169 79,-331 89,-501 43,-150 36,-311 38,-467 -14,-321 -230,-590 -479,-775zm-767 3639c-1,-107 -1,-216 29,-320 61,198 101,402 169,598 82,279 261,512 403,761 -200,-129 -351,-323 -456,-535 -69,-161 -107,-333 -145,-504z"></path> <g style="clip-path:url(#id3)"> <g id="_1504056000000"> <path id="1" class="fil11" style="mask:url(#id4)" d="M2632 10187c-177,-133 -391,-237 -618,-227 -162,13 -286,165 -297,321 18,185 107,352 188,516 82,159 127,334 167,508 26,175 11,354 -29,526 -83,349 -129,705 -160,1061 -10,115 -4,231 -24,344 -81,-198 -50,-419 -78,-627 -61,-67 -166,-85 -255,-98 -156,-23 -280,105 -347,231 -135,265 -161,570 -153,863 14,406 111,804 242,1187 47,100 100,198 167,286 198,302 539,528 907,532 189,-10 397,-77 486,-259 -48,-44 -97,-89 -136,-142 150,36 290,106 439,146 406,112 837,117 1252,54 164,-46 340,-53 498,-123 107,-49 226,-69 331,-122 285,-132 575,-282 779,-528 89,-104 142,-245 114,-381 -45,-147 -169,-245 -283,-336 -40,-24 -12,-66 3,-94 106,-195 251,-386 262,-615 58,-159 -43,-322 -157,-427 -101,-99 -242,-139 -349,-225 -6,-125 31,-251 5,-376 -21,-95 -46,-191 -84,-282 -123,-200 -350,-302 -569,-357 -367,-93 -762,-41 -1103,116 -157,73 -310,194 -338,375 198,4 383,-79 573,-125 141,-29 262,-117 405,-141 -130,207 -365,318 -590,394 -211,64 -430,120 -652,107l-16 12c-62,-28 -133,-47 -181,-98 -32,-79 -62,-166 -47,-253 22,-169 79,-331 89,-501 43,-150 36,-311 38,-467 -14,-321 -230,-590 -479,-775zm-767 3639c-1,-107 -1,-216 29,-320 61,198 101,402 169,598 82,279 261,512 403,761 -200,-129 -351,-323 -456,-535 -69,-161 -107,-333 -145,-504z"></path> </g> </g> <path class="fil12" d="M2632 10187c-177,-133 -391,-237 -618,-227 -162,13 -286,165 -297,321 18,185 107,352 188,516 82,159 127,334 167,508 26,175 11,354 -29,526 -83,349 -129,705 -160,1061 -10,115 -4,231 -24,344 -81,-198 -50,-419 -78,-627 -61,-67 -166,-85 -255,-98 -156,-23 -280,105 -347,231 -135,265 -161,570 -153,862 14,407 111,805 242,1188 47,100 100,198 167,286 198,302 539,527 907,532 189,-10 397,-77 486,-259 -48,-44 -97,-89 -136,-142 150,36 290,106 439,146 406,112 837,117 1252,54 164,-46 340,-53 498,-123 107,-49 226,-69 331,-122 285,-132 575,-282 779,-528 89,-104 142,-245 114,-381 -45,-147 -169,-245 -283,-336 -40,-24 -12,-66 3,-94 106,-195 251,-386 262,-615 58,-159 -43,-322 -157,-427 -101,-99 -242,-139 -349,-225 -6,-125 31,-251 5,-376 -21,-96 -46,-191 -84,-282 -123,-200 -350,-302 -569,-357 -367,-92 -762,-41 -1103,116 -157,73 -310,194 -338,375 198,4 383,-79 573,-125 141,-29 262,-117 405,-141 -130,207 -365,318 -590,394 -211,64 -430,120 -652,107l-16 12c-62,-28 -133,-47 -181,-98 -32,-79 -62,-166 -47,-253 22,-169 79,-331 89,-501 43,-150 36,-311 38,-467 -14,-321 -230,-590 -479,-775zm-767 3639c-1,-107 -1,-216 29,-320 61,198 101,402 169,598 82,279 261,512 403,761 -200,-129 -351,-323 -456,-535 -69,-161 -107,-333 -145,-504z"></path> <g id="_1504055998144"> <path class="fil13" d="M1894 13506c-30,104 -30,213 -29,320 38,171 76,343 145,504 105,212 256,406 456,535 -142,-249 -321,-482 -403,-761 -68,-196 -108,-400 -169,-598z"></path> </g> <g id="_1504055999072"> <path class="fil14" d="M6356 13050c12,-76 -10,-151 -58,-212 9,73 28,145 58,212z"></path> </g> <g id="_1504056001344"> <path class="fil15" d="M5188 15438c-160,26 -316,73 -467,132 162,-12 324,-55 467,-132z"></path> </g> <path class="fil2" d="M19746 8141c239,15 490,114 627,320 101,151 115,342 82,517 -61,287 -243,526 -441,736 -262,246 -537,478 -814,706 174,-91 345,-190 524,-273 406,-181 832,-363 1285,-359 370,-8 686,322 728,678 24,194 -27,400 -151,553 -156,201 -402,316 -651,347 -267,34 -526,109 -782,193 -139,46 -284,82 -411,160 124,30 255,28 373,82 181,64 343,197 413,379 72,178 22,380 -73,540 -152,240 -395,415 -662,506 -324,98 -702,105 -991,-95 -276,148 -588,224 -901,199 10,110 2,232 -97,302 -203,107 -443,66 -655,11 -235,-57 -441,-191 -639,-325 -384,-283 -715,-646 -941,-1068 -108,-214 -193,-454 -171,-698 8,-148 108,-297 257,-333 102,-28 206,3 306,24 -10,-151 -36,-302 -24,-454 10,-259 123,-498 236,-726 90,-159 184,-314 274,-472 71,-129 136,-268 145,-417 11,-217 -93,-420 -92,-636 0,-218 163,-415 367,-482 300,-61 613,50 846,239 178,139 330,333 358,563 28,147 5,296 -20,441 -35,193 -102,383 -218,543 10,4 31,12 40,16 228,-142 390,-358 526,-585 139,-236 312,-449 484,-662 67,-86 152,-155 234,-226 177,-144 396,-252 629,-244zm-2234 4999c88,12 172,42 253,79 213,66 443,-11 636,-106 85,-46 179,-88 247,-158 -47,-139 -109,-287 -71,-436 20,-119 114,-203 185,-294 140,-106 297,-188 466,-235 160,-45 332,-72 497,-29 -260,21 -513,116 -725,267 -121,85 -248,201 -256,358 3,171 100,339 257,414 137,59 291,78 439,50 224,-9 445,-94 620,-234 91,-80 193,-157 238,-275 58,-112 80,-256 10,-369 -98,-190 -310,-276 -507,-325 -121,-32 -247,-26 -369,-55 91,-67 194,-114 294,-165 284,-141 578,-267 883,-358 211,-66 445,-72 634,-197 158,-94 274,-259 293,-443 22,-238 -108,-482 -319,-596 -208,-83 -437,-42 -651,-4 -491,106 -952,312 -1408,516 -113,47 -216,119 -338,140 14,-20 44,-59 58,-79 303,-314 620,-615 920,-931 175,-208 376,-416 435,-690 41,-158 35,-358 -99,-470 -164,-148 -414,-204 -622,-121l0 0c-257,94 -451,299 -628,498 -164,215 -346,418 -486,649 -131,145 -272,282 -445,376 -111,65 -237,100 -340,178 132,104 276,200 369,346 188,271 267,639 137,951 -97,257 -310,453 -545,585l-1 18c-48,14 -95,30 -143,43 38,-45 80,-87 121,-129 153,-114 279,-265 374,-430 226,-415 7,-974 -400,-1186 -87,-47 -202,-59 -246,-158 64,-115 196,-158 273,-260 206,-226 293,-534 313,-834 20,-208 -85,-418 -248,-545 -102,-83 -207,-167 -335,-204 -156,-58 -350,-93 -493,14 -176,159 -111,423 -42,616 -5,54 -1,109 2,164 19,215 -86,417 -200,591 -176,281 -377,552 -483,869 -114,380 -70,797 80,1161 -79,-116 -106,-256 -166,-380 -125,-73 -316,-31 -395,92 -66,180 11,371 83,537 185,385 465,717 773,1011 262,250 571,463 923,562 125,33 262,57 387,11 88,-26 93,-139 82,-215 -23,-21 -53,-30 -82,-40 -91,-27 -171,-80 -239,-145z"></path> <path class="fil10" d="M19512 8394c208,-83 458,-27 622,121 134,112 140,312 99,470 -59,274 -260,482 -435,690 -300,316 -617,617 -920,931 -14,20 -44,59 -58,79 122,-21 225,-93 338,-140 456,-204 917,-410 1408,-516 214,-38 443,-79 651,4 211,114 341,358 319,596 -19,184 -135,349 -293,443 -189,125 -423,131 -634,197 -305,91 -599,217 -883,358 -100,51 -203,98 -294,165 122,29 248,23 369,55 197,49 409,135 507,325 70,113 48,257 -10,369 -45,118 -147,195 -238,275 -175,140 -396,226 -620,234 -148,28 -302,9 -439,-50 -157,-75 -254,-243 -257,-414 8,-157 135,-273 256,-358 212,-151 465,-246 725,-267 -165,-43 -337,-16 -497,29 -169,47 -326,129 -466,235 -71,91 -165,175 -185,294 -38,149 24,297 71,436 -68,70 -162,112 -247,158 -193,95 -423,172 -636,106 -81,-37 -165,-67 -253,-79 68,65 148,118 239,145 29,10 59,19 82,40 11,76 6,189 -82,215 -125,46 -262,22 -387,-11 -352,-99 -661,-312 -923,-562 -308,-294 -588,-626 -773,-1011 -72,-166 -149,-357 -83,-537 79,-123 270,-165 395,-92 60,124 87,264 166,380 -150,-364 -194,-781 -80,-1161 106,-317 307,-588 483,-869 114,-174 219,-376 200,-591 -3,-55 -7,-110 -2,-164 -69,-193 -134,-457 42,-616 143,-107 337,-72 493,-14 128,37 233,121 335,204 163,127 268,337 248,545 -20,300 -107,608 -313,834 -77,102 -209,145 -273,260 44,99 159,111 246,158 407,212 626,771 400,1186 -95,165 -221,316 -374,430 -41,42 -83,84 -121,129 48,-13 95,-29 143,-43l1 -18c235,-132 448,-328 545,-585 130,-312 51,-680 -137,-951 -93,-146 -237,-242 -369,-346 103,-78 229,-113 340,-178 173,-94 314,-231 445,-376 140,-231 322,-434 486,-649 178,-199 371,-404 628,-498zm-3237 3558l0 0c17,93 76,170 131,246 217,288 494,533 812,705 40,23 88,24 133,27 -139,-120 -289,-229 -413,-365 -235,-189 -434,-419 -663,-613z"></path> <g style="clip-path:url(#id6)"> <g id="_1504056000384"> <path id="1" class="fil11" style="mask:url(#id7)" d="M19512 8394c208,-83 458,-27 622,121 134,112 140,312 99,470 -59,274 -260,482 -435,690 -300,316 -617,617 -920,931 -14,20 -44,59 -58,79 122,-21 225,-93 338,-140 456,-204 917,-410 1408,-516 214,-38 443,-79 651,4 211,114 341,358 319,596 -19,184 -135,349 -293,443 -189,125 -423,131 -634,197 -305,91 -599,217 -883,358 -100,51 -203,98 -294,165 122,29 248,23 369,55 197,49 409,135 507,325 70,113 48,257 -10,369 -45,118 -147,195 -238,275 -175,140 -396,226 -620,234 -148,28 -302,9 -439,-50 -157,-75 -254,-243 -257,-414 8,-157 135,-273 256,-358 212,-151 465,-246 725,-267 -165,-43 -337,-16 -497,29 -169,47 -326,129 -466,235 -71,91 -165,175 -185,294 -38,149 24,297 71,436 -68,70 -162,112 -247,158 -193,95 -423,172 -636,106 -81,-37 -165,-67 -253,-79 68,65 148,118 239,145 29,10 59,19 82,40 11,76 6,189 -82,215 -125,46 -262,22 -387,-11 -352,-99 -661,-312 -923,-562 -308,-294 -588,-626 -773,-1011 -72,-166 -149,-357 -83,-537 79,-123 270,-165 395,-92 60,124 87,264 166,380 -150,-364 -194,-781 -80,-1161 106,-317 307,-588 483,-869 114,-174 219,-376 200,-591 -3,-55 -7,-110 -2,-164 -69,-193 -134,-457 42,-616 143,-107 337,-72 493,-14 128,37 233,121 335,204 163,127 268,337 248,545 -20,300 -107,608 -313,834 -77,102 -209,145 -273,260 44,99 159,111 246,158 407,212 626,771 400,1186 -95,165 -221,316 -374,430 -41,42 -83,84 -121,129 48,-13 95,-29 143,-43l2 -18c234,-132 447,-328 544,-585 130,-312 51,-680 -137,-951 -93,-146 -237,-242 -369,-346 103,-78 229,-113 340,-178 173,-94 314,-231 445,-376 140,-231 322,-434 486,-649 178,-199 371,-404 628,-498zm-3237 3558l0 0c17,93 76,171 131,246 217,288 494,533 812,705 40,23 88,24 133,27 -139,-120 -288,-229 -413,-365 -235,-189 -434,-419 -663,-613z"></path> </g> </g> <path class="fil12" d="M19512 8394c208,-83 458,-27 622,121 134,112 140,312 99,470 -59,274 -260,482 -435,690 -300,316 -617,617 -920,931 -14,20 -44,59 -58,79 122,-21 225,-93 338,-140 456,-204 917,-410 1408,-516 214,-38 443,-79 651,4 211,114 341,358 319,596 -19,184 -135,349 -293,443 -189,125 -423,131 -634,197 -305,91 -599,217 -883,358 -100,51 -203,98 -294,165 122,29 248,23 369,55 197,49 409,135 507,325 70,113 48,257 -10,369 -45,118 -147,195 -238,275 -175,140 -396,226 -620,234 -148,28 -302,9 -439,-50 -157,-75 -254,-243 -257,-414 8,-157 135,-273 256,-358 212,-151 465,-246 725,-267 -165,-43 -337,-16 -497,29 -169,47 -326,129 -466,235 -71,91 -165,175 -185,294 -38,149 24,297 71,436 -68,70 -162,112 -247,158 -193,95 -423,172 -636,106 -81,-37 -165,-67 -253,-79 68,65 148,118 239,145 29,10 59,19 82,40 11,76 6,189 -82,215 -125,46 -262,22 -387,-11 -352,-99 -661,-312 -923,-562 -308,-294 -588,-626 -773,-1011 -72,-166 -149,-357 -83,-537 79,-123 270,-165 395,-92 60,124 87,264 166,380 -150,-364 -194,-781 -80,-1161 106,-317 307,-588 483,-869 114,-174 219,-376 200,-591 -3,-55 -7,-110 -2,-164 -69,-193 -134,-457 42,-616 143,-107 337,-72 493,-14 128,37 233,121 335,204 163,127 268,337 248,545 -20,300 -107,608 -313,834 -77,102 -209,145 -273,260 44,99 159,111 246,158 407,212 626,771 400,1186 -95,165 -221,316 -374,430 -41,42 -83,84 -121,129 48,-13 95,-29 143,-43l1 -18c235,-132 448,-328 545,-585 130,-312 51,-680 -137,-951 -93,-146 -237,-242 -369,-346 103,-78 229,-113 340,-178 173,-94 314,-231 445,-376 140,-231 322,-434 486,-649 178,-199 371,-404 628,-498zm-3237 3558l0 0c17,93 76,170 131,246 217,288 494,533 812,705 40,23 88,24 133,27 -139,-120 -289,-229 -413,-365 -235,-189 -434,-419 -663,-613z"></path> <g id="_1504055998080"> <path class="fil16" d="M20455 8978c-7,252 -181,454 -331,641 -167,217 -416,351 -583,568 60,-18 121,-32 183,-40 -179,83 -350,182 -524,273 277,-228 552,-460 814,-706 198,-210 380,-449 441,-736z"></path> </g> <g id="_1504056002944"> <path class="fil17" d="M20304 11856c43,7 79,42 104,77 17,39 -45,5 -53,-6 -17,-19 -63,-42 -51,-71z"></path> </g> <path class="fil18" d="M16275 11952c229,194 428,424 663,613 124,136 274,245 413,365 -45,-3 -93,-4 -133,-27 -318,-172 -595,-417 -812,-705 -55,-76 -114,-153 -131,-246z"></path> <path class="fil5" d="M9487 6128c2056,0 3936,304 5385,808 410,1390 175,2397 175,2397 -3580,2363 -5449,-435 -5449,-435 0,0 -1869,2798 -5450,435 0,0 -244,-1047 201,-2480 1412,-454 3197,-725 5138,-725z"></path> <g style="clip-path:url(#id9)"> <g id="_1504056003232"> <path id="1" class="fil19" style="mask:url(#id10)" d="M3677 7748c0,0 5762,-1532 11195,-812 5432,720 3454,-1166 3454,-1166l-12655 -718c0,0 -2845,787 -2845,1063 0,276 851,1633 851,1633z"></path> </g> </g> <path class="fil8" d="M9487 6128c2056,0 3936,304 5385,808 410,1390 175,2397 175,2397 -3580,2363 -5449,-435 -5449,-435 0,0 -1869,2798 -5450,435 0,0 -244,-1047 201,-2480 1412,-454 3197,-725 5138,-725z"></path> <path class="fil20" d="M9487 5948c1017,0 1993,75 2896,210 937,141 1798,349 2547,609 57,20 97,65 113,119 424,1434 179,2482 179,2485 -11,47 -39,86 -76,111l0 0c-3142,2074 -5029,315 -5548,-294 -519,609 -2406,2368 -5548,294 -43,-28 -69,-71 -78,-118 -21,-97 -231,-1153 206,-2563 19,-60 65,-103 121,-119 727,-234 1552,-420 2443,-546 862,-121 1786,-188 2745,-188zm2843 565c-885,-133 -1843,-206 -2843,-206 -946,0 -1853,65 -2695,184 -837,118 -1612,289 -2299,504 -331,1130 -226,1985 -184,2228 3325,2150 5068,-319 5139,-423 13,-19 29,-35 48,-49 82,-56 193,-36 249,45 5,8 1750,2620 5142,427 41,-238 142,-1059 -162,-2148 -705,-239 -1513,-430 -2395,-562z"></path> <path class="fil0" d="M7388 8074c309,0 559,251 559,560 0,308 -250,559 -559,559 -309,0 -559,-251 -559,-559 0,-309 250,-560 559,-560zm4420 0c309,0 559,251 559,560 0,308 -250,559 -559,559 -309,0 -559,-251 -559,-559 0,-309 250,-560 559,-560z"></path> <path class="fil1" d="M5524 5509c-54,-259 -82,-527 -82,-801 0,-1765 1176,-3284 2838,-3820 411,-132 851,-204 1308,-204 1107,0 2169,425 2957,1204 757,747 1189,1752 1189,2820 0,301 -34,592 -101,885l-8109 -84z"></path> <path class="fil2" d="M9588 545c1182,0 2253,465 3029,1218 776,754 1257,1795 1257,2945 0,155 -9,309 -27,461 -17,154 -44,306 -78,455l-25 109c-2778,-29 -5556,-58 -8334,-87l-22 -109c-28,-135 -50,-272 -64,-412 -14,-139 -22,-278 -22,-417 0,-1150 481,-2191 1257,-2945 776,-753 1847,-1218 3029,-1218zm2835 1417c-725,-703 -1728,-1138 -2835,-1138 -1108,0 -2110,435 -2835,1138 -724,703 -1172,1674 -1172,2746 0,134 7,263 20,389 9,92 22,184 38,274l7882 82c21,-103 37,-208 49,-314 16,-140 25,-284 25,-431 0,-1072 -448,-2043 -1172,-2746z"></path> <path class="fil2" d="M10419 623c993,190 1863,713 2481,1443 608,719 974,1639 974,2642 0,155 -9,309 -27,462 -17,154 -44,305 -78,454l-25 109 -1976 -20 -41 -52c-249,-310 -476,-651 -674,-1016 -193,-355 -359,-734 -492,-1131 -158,-472 -260,-941 -311,-1398 -52,-474 -49,-935 5,-1373l18 -147 146 27zm2268 1623c-547,-646 -1305,-1119 -2172,-1318 -35,372 -32,760 12,1157 49,439 147,889 298,1340 128,383 287,746 472,1087 179,330 383,639 607,924l1617 17c21,-103 37,-208 49,-314 16,-140 25,-284 25,-431 0,-935 -341,-1792 -908,-2462zm-7299 3291c-28,-135 -50,-272 -64,-412 -14,-139 -22,-278 -22,-417 0,-1003 365,-1923 974,-2642 618,-730 1488,-1253 2480,-1443l147 -27 18 147c54,438 57,899 5,1373 -51,457 -153,926 -311,1398 -130,388 -291,757 -477,1103 -192,358 -411,691 -652,997l-42 54 -2034 -22 -22 -109zm213 -440c9,92 22,184 38,274l1670 17c215,-279 411,-581 584,-902 179,-334 334,-689 458,-1061 151,-451 249,-901 298,-1340 44,-397 47,-785 12,-1157 -867,199 -1626,672 -2173,1318 -566,670 -907,1527 -907,2462 0,134 7,264 20,389z"></path> <path class="fil1" d="M7468 5396c-1912,-52 -2023,-573 -2023,-573 -1259,450 -1235,1137 19,1401 1758,370 6492,370 8250,0 1254,-264 1278,-951 19,-1401 0,0 -111,521 -2023,573 -1414,0 -2828,0 -4242,0z"></path> <path class="fil2" d="M7465 5535c-1420,-39 -1908,-357 -2073,-544 -329,128 -548,270 -662,410 -56,70 -82,136 -79,196 3,58 36,118 97,177 133,127 381,237 744,314 869,182 2481,274 4097,274 1616,0 3228,-92 4097,-274 364,-77 612,-187 744,-314 61,-59 94,-119 97,-177 3,-60 -23,-126 -79,-196 -113,-140 -333,-282 -662,-410 -165,187 -653,505 -2073,544l-3 1 -4242 0 -3 -1zm-1886 -746c1,1 87,419 1889,468l0 0 4242 0 0 0c1802,-49 1888,-467 1889,-468l38 -149 143 52c434,155 729,342 885,535 100,125 147,254 140,384 -7,131 -68,254 -182,364 -169,161 -463,297 -880,385 -890,187 -2523,281 -4154,281 -1630,0 -3264,-94 -4153,-281 -417,-88 -712,-224 -880,-385 -115,-110 -176,-233 -183,-364 -7,-130 40,-259 141,-384 155,-193 450,-380 884,-535l143 -52 38 149z"></path> <polygon class="fil5" points="10312,3328 9541,4163 9492,4088 9169,4244 9530,4696 10402,3328 "></polygon> <polygon class="fil5" points="9333,3850 8587,4480 9454,4032 "></polygon> <path class="fil5" d="M8975 4451c94,201 297,341 534,341 324,0 588,-264 588,-588 0,-43 -5,-84 -13,-123l155 -247c56,111 88,237 88,370 0,451 -367,817 -818,817 -328,0 -611,-192 -741,-470l207 -100zm534 -1065c162,0 314,47 441,129l-164 170c-82,-44 -177,-70 -277,-70 -247,0 -458,152 -545,367l-273 227c0,-2 0,-4 0,-5 0,-452 366,-818 818,-818z"></path> </g> </svg> 