<?xml version="1.0" encoding="iso-8859-1"?>
<!-- Generator: Adobe Illustrator 16.0.0, SVG Export Plug-In . SVG Version: 6.00 Build 0)  -->
<!DOCTYPE svg PUBLIC "-//W3C//DTD SVG 1.1//EN" "http://www.w3.org/Graphics/SVG/1.1/DTD/svg11.dtd">
<svg version="1.1" id="Capa_1" xmlns="http://www.w3.org/2000/svg" xmlns:xlink="http://www.w3.org/1999/xlink" x="0px" y="0px"
	 width="606.191px" height="606.191px" viewBox="0 0 606.191 606.191" style="enable-background:new 0 0 606.191 606.191;"
	 xml:space="preserve">
<g>
	<g>
		<g>
			<path d="M22.158,415.072c10.465,9.775,24.11,15.156,38.422,15.156c14.886,0,28.922-5.836,39.521-16.436l68.75-68.75
				c23.129-23.129,23.129-60.764,0-83.894l-68.75-68.75C89.502,181.8,75.466,175.963,60.58,175.963
				c-14.312,0-27.958,5.383-38.422,15.156c-5.505,5.141-9.842,11.228-12.89,18.091c-3.191,7.186-4.809,14.858-4.809,22.804v142.163
				c0,7.947,1.618,15.619,4.81,22.807C12.317,403.846,16.653,409.932,22.158,415.072z M47.299,232.015
				c0-7.948,6.502-13.211,13.28-13.211c3.239,0,6.542,1.202,9.228,3.888l68.75,68.75c6.437,6.437,6.437,16.873,0,23.308
				l-68.75,68.75c-2.687,2.688-5.988,3.889-9.228,3.889c-6.778,0-13.28-5.264-13.28-13.211L47.299,232.015L47.299,232.015z"/>
			<path d="M60.58,430.729c-14.44,0-28.207-5.431-38.763-15.291c-5.553-5.186-9.928-11.325-13.005-18.25
				c-3.22-7.252-4.853-14.993-4.853-23.01V232.015c0-8.016,1.632-15.757,4.852-23.007c3.076-6.926,7.451-13.067,13.005-18.253
				c10.558-9.861,24.325-15.291,38.764-15.291c15.02,0,29.181,5.889,39.874,16.583l68.75,68.75
				c23.324,23.325,23.324,61.277,0,84.601l-68.75,68.75C89.762,424.84,75.601,430.729,60.58,430.729z M60.58,176.463
				c-14.185,0-27.709,5.335-38.081,15.021c-5.456,5.095-9.753,11.127-12.774,17.929c-3.163,7.122-4.766,14.726-4.766,22.601v142.163
				c0,7.876,1.604,15.48,4.767,22.604c3.021,6.801,7.319,12.832,12.773,17.926c10.371,9.687,23.895,15.021,38.081,15.021
				c14.754,0,28.664-5.785,39.167-16.289l68.75-68.75c22.934-22.935,22.934-60.252,0-83.187l-68.75-68.75
				C89.243,182.248,75.333,176.463,60.58,176.463z M60.58,387.889c-8.626,0-13.78-6.972-13.78-13.711l0-142.163
				c0-6.74,5.154-13.711,13.78-13.711c3.577,0,6.98,1.433,9.581,4.035l68.75,68.75c3.208,3.208,4.974,7.472,4.974,12.008
				c0,4.536-1.766,8.8-4.974,12.007l-68.75,68.75C67.561,386.456,64.158,387.889,60.58,387.889z M60.58,219.303
				c-6.282,0-12.78,4.755-12.78,12.711l0,142.163c0,7.956,6.498,12.711,12.78,12.711c3.358,0,6.427-1.294,8.875-3.742l68.75-68.75
				c3.019-3.019,4.681-7.031,4.681-11.3c0-4.269-1.662-8.283-4.681-11.301l-68.75-68.75
				C67.006,220.597,63.938,219.303,60.58,219.303z"/>
		</g>
		<g>
			<path d="M601.732,58.64c0-32.059-26.082-58.14-58.141-58.14h-263.69c-32.058,0-58.14,26.082-58.14,58.14v64.75
				c0,32.059,26.082,58.14,58.14,58.14h263.69c32.059,0,58.141-26.082,58.141-58.14V58.64z M558.893,123.39
				c0,8.45-6.852,15.3-15.301,15.3h-263.69c-8.45,0-15.3-6.85-15.3-15.3V58.64c0-8.45,6.85-15.3,15.3-15.3h263.69
				c8.449,0,15.301,6.85,15.301,15.3V123.39z"/>
			<path d="M543.592,182.03h-263.69c-32.334,0-58.64-26.306-58.64-58.64V58.64c0-32.334,26.306-58.64,58.64-58.64h263.69
				c32.335,0,58.641,26.306,58.641,58.64v64.75C602.232,155.725,575.927,182.03,543.592,182.03z M279.902,1
				c-31.783,0-57.64,25.857-57.64,57.64v64.75c0,31.783,25.857,57.64,57.64,57.64h263.69c31.783,0,57.641-25.857,57.641-57.64V58.64
				c0-31.783-25.857-57.64-57.641-57.64H279.902z M543.592,139.19h-263.69c-8.712,0-15.8-7.088-15.8-15.8V58.64
				c0-8.712,7.088-15.8,15.8-15.8h263.69c8.713,0,15.801,7.088,15.801,15.8v64.75C559.393,132.103,552.305,139.19,543.592,139.19z
				 M279.902,43.84c-8.161,0-14.8,6.639-14.8,14.8v64.75c0,8.161,6.639,14.8,14.8,14.8h263.69c8.161,0,14.801-6.639,14.801-14.8
				V58.64c0-8.161-6.64-14.8-14.801-14.8H279.902z"/>
		</g>
		<g>
			<path d="M601.732,270.721c0-32.058-26.082-58.14-58.141-58.14h-263.69c-32.058,0-58.14,26.082-58.14,58.14v64.75
				c0,32.059,26.082,58.141,58.14,58.141h263.69c32.059,0,58.141-26.082,58.141-58.141V270.721z M558.893,335.471
				c0,8.449-6.852,15.301-15.301,15.301h-263.69c-8.45,0-15.3-6.852-15.3-15.301v-64.75c0-8.45,6.85-15.3,15.3-15.3h263.69
				c8.449,0,15.301,6.85,15.301,15.3V335.471z"/>
			<path d="M543.592,394.111h-263.69c-32.334,0-58.64-26.306-58.64-58.641v-64.75c0-32.334,26.306-58.64,58.64-58.64h263.69
				c32.335,0,58.641,26.306,58.641,58.64v64.75C602.232,367.806,575.927,394.111,543.592,394.111z M279.902,213.082
				c-31.783,0-57.64,25.857-57.64,57.64v64.75c0,31.783,25.857,57.641,57.64,57.641h263.69c31.783,0,57.641-25.857,57.641-57.641
				v-64.75c0-31.783-25.857-57.64-57.641-57.64H279.902z M543.592,351.271h-263.69c-8.712,0-15.8-7.088-15.8-15.801v-64.75
				c0-8.712,7.088-15.8,15.8-15.8h263.69c8.713,0,15.801,7.088,15.801,15.8v64.75C559.393,344.184,552.305,351.271,543.592,351.271z
				 M279.902,255.921c-8.161,0-14.8,6.639-14.8,14.8v64.75c0,8.161,6.639,14.801,14.8,14.801h263.69
				c8.161,0,14.801-6.64,14.801-14.801v-64.75c0-8.161-6.64-14.8-14.801-14.8H279.902z"/>
		</g>
		<g>
			<path d="M601.732,547.553v-64.75c0-32.059-26.082-58.141-58.141-58.141h-263.69c-32.058,0-58.14,26.082-58.14,58.141v64.75
				c0,32.059,26.082,58.139,58.14,58.139h263.69C575.65,605.691,601.732,579.611,601.732,547.553z M558.893,547.553
				c0,8.449-6.852,15.299-15.301,15.299h-263.69c-8.45,0-15.3-6.85-15.3-15.299v-64.75c0-8.451,6.85-15.301,15.3-15.301h263.69
				c8.449,0,15.301,6.85,15.301,15.301V547.553z"/>
			<path d="M543.592,606.191h-263.69c-32.334,0-58.64-26.306-58.64-58.639v-64.75c0-32.335,26.306-58.641,58.64-58.641h263.69
				c32.335,0,58.641,26.306,58.641,58.641v64.75C602.232,579.886,575.927,606.191,543.592,606.191z M279.902,425.162
				c-31.783,0-57.64,25.857-57.64,57.641v64.75c0,31.782,25.857,57.639,57.64,57.639h263.69c31.783,0,57.641-25.856,57.641-57.639
				v-64.75c0-31.783-25.857-57.641-57.641-57.641H279.902z M543.592,563.352h-263.69c-8.712,0-15.8-7.087-15.8-15.799v-64.75
				c0-8.713,7.088-15.801,15.8-15.801h263.69c8.713,0,15.801,7.088,15.801,15.801v64.75
				C559.393,556.265,552.305,563.352,543.592,563.352z M279.902,468.002c-8.161,0-14.8,6.64-14.8,14.801v64.75
				c0,8.16,6.639,14.799,14.8,14.799h263.69c8.161,0,14.801-6.639,14.801-14.799v-64.75c0-8.161-6.64-14.801-14.801-14.801H279.902z
				"/>
		</g>
	</g>
</g>
<g>
</g>
<g>
</g>
<g>
</g>
<g>
</g>
<g>
</g>
<g>
</g>
<g>
</g>
<g>
</g>
<g>
</g>
<g>
</g>
<g>
</g>
<g>
</g>
<g>
</g>
<g>
</g>
<g>
</g>
</svg>
