<svg id="Capa_1" enable-background="new 0 0 512 512" height="512" viewBox="0 0 512 512" width="512" xmlns="http://www.w3.org/2000/svg"><g><path d="m471.366 0h-430.733c-22.405 0-40.632 18.228-40.632 40.633v67.833c0 4.143 3.358 7.5 7.5 7.5s7.5-3.357 7.5-7.5v-67.833c0-14.134 11.498-25.633 25.632-25.633h430.733c14.134 0 25.633 11.499 25.633 25.633v430.734c0 14.134-11.499 25.633-25.633 25.633h-430.733c-14.134 0-25.632-11.499-25.632-25.633v-332.901c0-4.143-3.358-7.5-7.5-7.5s-7.5 3.357-7.5 7.5v332.901c0 22.405 18.227 40.633 40.632 40.633h430.733c22.405 0 40.633-18.228 40.633-40.633v-430.734c0-22.405-18.227-40.633-40.633-40.633z"/><path d="m57.2 81.267c13.27 0 24.066-10.797 24.066-24.067s-10.796-24.067-24.066-24.067c-13.271 0-24.067 10.796-24.067 24.066s10.796 24.068 24.067 24.068zm0-33.134c4.999 0 9.066 4.067 9.066 9.066 0 5-4.067 9.067-9.066 9.067-5 0-9.067-4.067-9.067-9.067 0-4.999 4.067-9.066 9.067-9.066z"/><path d="m147.533 57.199c0-13.271-10.796-24.066-24.067-24.066-13.27 0-24.066 10.796-24.066 24.066s10.796 24.067 24.066 24.067c13.271.001 24.067-10.796 24.067-24.067zm-33.133 0c0-4.999 4.067-9.066 9.066-9.066s9.067 4.067 9.067 9.066c0 5-4.067 9.067-9.067 9.067-4.999.001-9.066-4.067-9.066-9.067z"/><path d="m213.8 57.199c0-13.271-10.796-24.066-24.066-24.066-13.271 0-24.067 10.796-24.067 24.066s10.796 24.067 24.067 24.067c13.27.001 24.066-10.796 24.066-24.067zm-33.134 0c0-4.999 4.067-9.066 9.067-9.066 4.999 0 9.066 4.067 9.066 9.066 0 5-4.067 9.067-9.066 9.067-4.999.001-9.067-4.067-9.067-9.067z"/><path d="m33.133 132.033c0 8.547 6.953 15.5 15.5 15.5h414.734c8.547 0 15.5-6.953 15.5-15.5v-17.134c0-8.547-6.953-15.5-15.5-15.5h-414.734c-8.547 0-15.5 6.953-15.5 15.5zm15-17.134c0-.275.224-.5.5-.5h414.734c.275 0 .5.225.5.5v17.134c0 .275-.225.5-.5.5h-414.734c-.276 0-.5-.225-.5-.5z"/><path d="m33.133 463.367c0 8.547 6.953 15.5 15.5 15.5h29.712c4.142 0 7.5-3.357 7.5-7.5s-3.358-7.5-7.5-7.5h-29.712c-.276 0-.5-.225-.5-.5v-282.201c0-.275.224-.5.5-.5h414.734c.275 0 .5.225.5.5v282.201c0 .275-.225.5-.5.5h-355.021c-4.142 0-7.5 3.357-7.5 7.5s3.358 7.5 7.5 7.5h355.022c8.547 0 15.5-6.953 15.5-15.5v-282.201c0-8.547-6.953-15.5-15.5-15.5h-414.735c-8.547 0-15.5 6.953-15.5 15.5z"/><path d="m123.466 314.767c-4.142 0-7.5 3.357-7.5 7.5v25.633h-17.633c-8.547 0-15.5 6.953-15.5 15.5v66.833c0 8.547 6.953 15.5 15.5 15.5h50.267c8.547 0 15.5-6.953 15.5-15.5v-41.7-25.133c0-8.547-6.953-15.5-15.5-15.5h-17.633v-18.134h117.533v18.134h-17.633c-8.547 0-15.5 6.953-15.5 15.5v66.833c0 8.547 6.953 15.5 15.5 15.5h50.267c8.547 0 15.5-6.953 15.5-15.5v-41.7-25.133c0-8.547-6.953-15.5-15.5-15.5h-17.634v-18.134h117.533v18.134h-17.633c-8.547 0-15.5 6.953-15.5 15.5v66.833c0 8.547 6.953 15.5 15.5 15.5h50.267c8.547 0 15.5-6.953 15.5-15.5v-41.7-25.133c0-8.547-6.953-15.5-15.5-15.5h-17.634v-25.634c0-4.143-3.357-7.5-7.5-7.5h-125.033v-18.133h33.917c8.703 0 15.783-7.081 15.783-15.784v-66.267c0-8.703-7.08-15.783-15.783-15.783h-32.156c-6.018 0-11.428 3.344-14.116 8.725l-3.704 7.408c-.134.268-.403.434-.702.434h-32.155c-8.703 0-15.784 7.081-15.784 15.784v49.699c0 8.703 7.081 15.784 15.784 15.784h33.916v18.133h-125.034zm25.134 115.966h-50.267c-.276 0-.5-.225-.5-.5v-66.833c0-.275.224-.5.5-.5h17.633v17.633c0 8.547 6.953 15.5 15.5 15.5h17.634v34.2c0 .276-.225.5-.5.5zm.5-67.333v17.633h-17.633c-.276 0-.5-.225-.5-.5v-17.633h17.633c.275 0 .5.225.5.5zm132.034 67.333h-50.267c-.276 0-.5-.225-.5-.5v-66.833c0-.275.224-.5.5-.5h17.633v17.633c0 8.547 6.953 15.5 15.5 15.5h17.634v34.2c0 .276-.225.5-.5.5zm.5-67.333v17.633h-17.634c-.275 0-.5-.225-.5-.5v-17.633h17.634c.275 0 .5.225.5.5zm132.033 67.333h-50.267c-.275 0-.5-.225-.5-.5v-66.833c0-.275.225-.5.5-.5h17.633v17.633c0 8.547 6.953 15.5 15.5 15.5h17.634v34.2c0 .276-.225.5-.5.5zm.5-67.333v17.633h-17.634c-.275 0-.5-.225-.5-.5v-17.633h17.634c.275 0 .5.225.5.5zm-200.367-82.55v-49.7c0-.433.352-.784.784-.784h32.155c6.017 0 11.425-3.343 14.118-8.724l3.705-7.411c.131-.263.405-.432.699-.432h32.156c.432 0 .783.352.783.783v66.267c0 .433-.352.784-.783.784h-82.834c-.432.001-.783-.351-.783-.783z"/></g></svg>